M48
; DRILL file {KiCad 7.0.7} date Wed Jun 12 19:49:13 2024
; FORMAT={-:-/ absolute / inch / decimal}
; #@! TF.CreationDate,2024-06-12T19:49:13-05:00
; #@! TF.GenerationSoftware,Kicad,Pcbnew,7.0.7
; #@! TF.FileFunction,Plated,1,2,PTH
FMAT,2
INCH
; #@! TA.AperFunction,Plated,PTH,ViaDrill
T1C0.0157
; #@! TA.AperFunction,Plated,PTH,ComponentDrill
T2C0.0315
; #@! TA.AperFunction,Plated,PTH,ComponentDrill
T3C0.0394
%
G90
G05
T1
X3.2618Y-3.905
X3.3165Y-4.2
X3.5343Y-3.8798
X3.6529Y-3.0658
X3.975Y-3.0788
X4.0827Y-3.2782
X4.1823Y-2.5583
X4.2618Y-3.5734
X4.3547Y-2.9565
X4.4308Y-3.128
X4.5965Y-3.7517
X4.6542Y-3.7611
X4.7262Y-3.4806
X4.7556Y-3.9207
X4.7897Y-4.0189
X4.9566Y-3.2722
X4.9641Y-2.632
X4.9707Y-3.9137
X4.9839Y-3.7783
X5.0475Y-3.7972
X5.1551Y-2.8601
X5.2471Y-3.131
X5.2734Y-3.8909
X5.3706Y-3.8753
X5.4313Y-3.2025
X5.4368Y-2.5092
X5.45Y-3.8581
X5.4573Y-3.7708
X5.5262Y-2.6542
X5.6285Y-2.904
X5.6659Y-2.9274
X5.7685Y-2.8091
X5.804Y-3.3866
X5.8046Y-2.5742
X5.8329Y-3.5734
X5.8436Y-3.9662
X5.8931Y-3.9281
X5.9587Y-3.6275
X6.0684Y-3.4525
X6.2704Y-4.1067
X6.2804Y-3.4741
X6.3079Y-4.4069
X6.4166Y-3.2956
X6.466Y-3.4347
X6.5049Y-2.5512
X6.6425Y-5.1971
X6.721Y-3.4276
X6.7706Y-3.8256
X6.8041Y-3.733
X6.8337Y-3.3162
X6.835Y-3.3841
X6.89Y-3.4276
X6.9129Y-5.0057
X6.9149Y-5.3057
X6.9773Y-4.1737
X7.035Y-4.3068
X7.0685Y-5.4421
X7.0833Y-4.1117
X7.1129Y-5.2898
X7.1422Y-3.9594
X7.1893Y-2.8344
X7.3105Y-4.9817
X7.3697Y-5.4782
X7.3708Y-3.9592
X7.4076Y-5.0504
X7.414Y-5.4662
X7.4353Y-4.9056
X7.4599Y-2.9629
X7.477Y-4.303
X7.6439Y-5.4922
X7.6494Y-4.1021
X7.6682Y-2.8484
X7.702Y-4.2399
X7.7239Y-4.0482
X7.7356Y-3.3941
X7.7752Y-3.3787
X7.8448Y-5.0037
X7.8875Y-3.4702
X7.9115Y-4.1053
X7.9198Y-4.2045
X7.9436Y-3.2588
X7.9533Y-5.6252
X7.9548Y-3.4667
X7.9741Y-5.3737
X7.9745Y-3.9669
X7.9949Y-3.3433
X8.0334Y-3.4234
X8.0442Y-2.8769
X8.0493Y-4.4656
X8.0524Y-3.1395
X8.0938Y-3.1372
X8.1707Y-4.9603
X8.1975Y-4.6103
X8.2079Y-3.2923
X8.2271Y-4.4893
X8.274Y-4.1104
X8.3233Y-4.6117
X8.3316Y-4.6561
X8.4495Y-4.7106
X8.4638Y-4.4867
X8.4698Y-4.0188
X8.545Y-3.1035
X8.5563Y-3.9758
X8.5895Y-4.5153
X8.6267Y-3.4431
X8.6629Y-3.5201
X8.7035Y-3.5805
X8.7147Y-4.5798
T2
X2.8516Y-3.85
X2.8516Y-3.95
X2.8516Y-4.05
X2.8516Y-4.15
X2.8516Y-4.25
X2.8516Y-4.35
X2.8516Y-4.45
X2.8516Y-4.55
X2.8516Y-4.65
X2.8516Y-4.75
X2.8516Y-4.85
X2.8516Y-4.95
X2.8516Y-5.05
X2.8516Y-5.15
X2.8516Y-5.25
X2.8516Y-5.35
X2.8516Y-5.45
X2.8516Y-5.55
X2.8516Y-5.65
X2.8516Y-5.75
X3.0516Y-3.725
X3.0998Y-2.477
X3.0998Y-2.6738
X3.225Y-2.425
X3.225Y-2.725
X3.2484Y-3.725
X3.325Y-2.425
X3.325Y-2.725
X3.425Y-2.425
X3.425Y-2.725
X3.4516Y-3.85
X3.4516Y-3.95
X3.4516Y-4.05
X3.4516Y-4.15
X3.4516Y-4.25
X3.4516Y-4.35
X3.4516Y-4.45
X3.4516Y-4.55
X3.4516Y-4.65
X3.4516Y-4.75
X3.4516Y-4.85
X3.4516Y-4.95
X3.4516Y-5.05
X3.4516Y-5.15
X3.4516Y-5.25
X3.4516Y-5.35
X3.4516Y-5.45
X3.4516Y-5.55
X3.4516Y-5.65
X3.4516Y-5.75
X3.525Y-2.425
X3.525Y-2.725
X3.625Y-2.425
X3.625Y-2.725
X3.7Y-3.0994
X3.7Y-3.2963
X3.7Y-3.7266
X3.7Y-3.9234
X3.725Y-2.425
X3.725Y-2.725
X3.7264Y-4.25
X3.7264Y-4.35
X3.7264Y-4.45
X3.7264Y-4.55
X3.7264Y-4.65
X3.7264Y-4.75
X3.7264Y-4.85
X3.7264Y-4.95
X3.7264Y-5.05
X3.7264Y-5.15
X3.7264Y-5.25
X3.7264Y-5.35
X3.7264Y-5.45
X3.7264Y-5.55
X3.7264Y-5.65
X3.7264Y-5.75
X3.825Y-2.425
X3.825Y-2.725
X3.825Y-3.05
X3.825Y-3.35
X3.825Y-3.675
X3.825Y-3.975
X3.925Y-2.425
X3.925Y-2.725
X3.925Y-3.05
X3.925Y-3.35
X3.925Y-3.675
X3.925Y-3.975
X3.9266Y-4.125
X4.025Y-2.425
X4.025Y-2.725
X4.025Y-3.05
X4.025Y-3.35
X4.025Y-3.675
X4.025Y-3.975
X4.1234Y-4.125
X4.125Y-2.425
X4.125Y-2.725
X4.125Y-3.05
X4.125Y-3.35
X4.125Y-3.675
X4.125Y-3.975
X4.225Y-3.05
X4.225Y-3.35
X4.225Y-3.675
X4.225Y-3.975
X4.325Y-3.05
X4.325Y-3.35
X4.325Y-3.675
X4.325Y-3.975
X4.3264Y-4.25
X4.3264Y-4.35
X4.3264Y-4.45
X4.3264Y-4.55
X4.3264Y-4.65
X4.3264Y-4.75
X4.3264Y-4.85
X4.3264Y-4.95
X4.3264Y-5.05
X4.3264Y-5.15
X4.3264Y-5.25
X4.3264Y-5.35
X4.3264Y-5.45
X4.3264Y-5.55
X4.3264Y-5.65
X4.3264Y-5.75
X4.425Y-2.4766
X4.425Y-2.6734
X4.425Y-3.05
X4.425Y-3.35
X4.425Y-3.675
X4.425Y-3.975
X4.525Y-3.05
X4.525Y-3.35
X4.525Y-3.675
X4.525Y-3.975
X4.55Y-2.425
X4.55Y-2.725
X4.603Y-4.25
X4.603Y-4.35
X4.603Y-4.45
X4.603Y-4.55
X4.603Y-4.65
X4.603Y-4.75
X4.603Y-4.85
X4.603Y-4.95
X4.603Y-5.05
X4.603Y-5.15
X4.603Y-5.25
X4.603Y-5.35
X4.603Y-5.45
X4.603Y-5.55
X4.603Y-5.65
X4.603Y-5.75
X4.65Y-2.425
X4.65Y-2.725
X4.75Y-2.425
X4.75Y-2.725
X4.8016Y-4.125
X4.825Y-3.102
X4.825Y-3.2988
X4.825Y-3.7266
X4.825Y-3.9234
X4.85Y-2.425
X4.85Y-2.725
X4.95Y-2.425
X4.95Y-2.725
X4.95Y-3.05
X4.95Y-3.35
X4.95Y-3.6746
X4.95Y-3.9746
X4.9984Y-4.125
X5.05Y-2.425
X5.05Y-2.725
X5.05Y-3.05
X5.05Y-3.35
X5.05Y-3.6746
X5.05Y-3.9746
X5.15Y-2.425
X5.15Y-2.725
X5.15Y-3.05
X5.15Y-3.35
X5.15Y-3.6746
X5.15Y-3.9746
X5.203Y-4.25
X5.203Y-4.35
X5.203Y-4.45
X5.203Y-4.55
X5.203Y-4.65
X5.203Y-4.75
X5.203Y-4.85
X5.203Y-4.95
X5.203Y-5.05
X5.203Y-5.15
X5.203Y-5.25
X5.203Y-5.35
X5.203Y-5.45
X5.203Y-5.55
X5.203Y-5.65
X5.203Y-5.75
X5.25Y-2.425
X5.25Y-2.725
X5.25Y-3.05
X5.25Y-3.35
X5.25Y-3.6746
X5.25Y-3.9746
X5.35Y-2.425
X5.35Y-2.725
X5.35Y-3.05
X5.35Y-3.35
X5.35Y-3.6746
X5.35Y-3.9746
X5.45Y-2.425
X5.45Y-2.725
X5.45Y-3.05
X5.45Y-3.35
X5.45Y-3.6746
X5.45Y-3.9746
X5.4764Y-4.25
X5.4764Y-4.35
X5.4764Y-4.45
X5.4764Y-4.55
X5.4764Y-4.65
X5.4764Y-4.75
X5.4764Y-4.85
X5.4764Y-4.95
X5.4764Y-5.05
X5.4764Y-5.15
X5.4764Y-5.25
X5.4764Y-5.35
X5.4764Y-5.45
X5.4764Y-5.55
X5.4764Y-5.65
X5.4764Y-5.75
X5.55Y-3.05
X5.55Y-3.35
X5.55Y-3.6746
X5.55Y-3.9746
X5.65Y-3.05
X5.65Y-3.35
X5.65Y-3.6746
X5.65Y-3.9746
X5.6766Y-4.125
X5.75Y-2.4766
X5.75Y-2.6734
X5.8734Y-4.125
X5.875Y-2.425
X5.875Y-2.725
X5.9494Y-3.7266
X5.9494Y-3.9234
X5.95Y-3.1031
X5.95Y-3.3
X5.975Y-2.425
X5.975Y-2.725
X6.075Y-2.425
X6.075Y-2.725
X6.075Y-3.05
X6.075Y-3.35
X6.075Y-3.6746
X6.075Y-3.9746
X6.0764Y-4.25
X6.0764Y-4.35
X6.0764Y-4.45
X6.0764Y-4.55
X6.0764Y-4.65
X6.0764Y-4.75
X6.0764Y-4.85
X6.0764Y-4.95
X6.0764Y-5.05
X6.0764Y-5.15
X6.0764Y-5.25
X6.0764Y-5.35
X6.0764Y-5.45
X6.0764Y-5.55
X6.0764Y-5.65
X6.0764Y-5.75
X6.175Y-2.425
X6.175Y-2.725
X6.175Y-3.05
X6.175Y-3.35
X6.175Y-3.6746
X6.175Y-3.9746
X6.275Y-2.425
X6.275Y-2.725
X6.275Y-3.05
X6.275Y-3.35
X6.275Y-3.6746
X6.275Y-3.9746
X6.3498Y-4.25
X6.3498Y-4.35
X6.3498Y-4.45
X6.3498Y-4.55
X6.3498Y-4.65
X6.3498Y-4.75
X6.3498Y-4.85
X6.3498Y-4.95
X6.3498Y-5.05
X6.3498Y-5.15
X6.3498Y-5.25
X6.3498Y-5.35
X6.3498Y-5.45
X6.3498Y-5.55
X6.3498Y-5.65
X6.3498Y-5.75
X6.375Y-2.425
X6.375Y-2.725
X6.375Y-3.05
X6.375Y-3.35
X6.375Y-3.6746
X6.375Y-3.9746
X6.475Y-2.425
X6.475Y-2.725
X6.475Y-3.05
X6.475Y-3.35
X6.475Y-3.6746
X6.475Y-3.9746
X6.5516Y-4.125
X6.575Y-2.425
X6.575Y-2.725
X6.575Y-3.05
X6.575Y-3.35
X6.575Y-3.6746
X6.575Y-3.9746
X6.675Y-2.425
X6.675Y-2.725
X6.675Y-3.05
X6.675Y-3.35
X6.675Y-3.6746
X6.675Y-3.9746
X6.7484Y-4.125
X6.775Y-2.425
X6.775Y-2.725
X6.775Y-3.05
X6.775Y-3.35
X6.775Y-3.6746
X6.775Y-3.9746
X6.9498Y-4.25
X6.9498Y-4.35
X6.9498Y-4.45
X6.9498Y-4.55
X6.9498Y-4.65
X6.9498Y-4.75
X6.9498Y-4.85
X6.9498Y-4.95
X6.9498Y-5.05
X6.9498Y-5.15
X6.9498Y-5.25
X6.9498Y-5.35
X6.9498Y-5.45
X6.9498Y-5.55
X6.9498Y-5.65
X6.9498Y-5.75
X7.075Y-3.3266
X7.075Y-3.5234
X7.2Y-3.275
X7.2Y-3.575
X7.275Y-2.6516
X7.275Y-2.8484
X7.3Y-3.275
X7.3Y-3.575
X7.3998Y-2.4266
X7.3998Y-3.0266
X7.4Y-3.275
X7.4Y-3.575
X7.45Y-4.85
X7.4998Y-2.4266
X7.4998Y-3.0266
X7.5Y-3.275
X7.5Y-3.575
X7.5484Y-4.85
X7.5998Y-2.4266
X7.5998Y-3.0266
X7.6Y-3.275
X7.6Y-3.575
X7.6998Y-2.4266
X7.6998Y-3.0266
X7.7Y-3.275
X7.7Y-3.575
X7.7998Y-2.4266
X7.7998Y-3.0266
X7.8Y-3.275
X7.8Y-3.575
X7.8998Y-2.4266
X7.8998Y-3.0266
X7.9998Y-2.4266
X7.9998Y-3.0266
X8.0484Y-4.875
X8.0484Y-4.975
X8.0484Y-5.075
X8.0484Y-5.175
X8.0484Y-5.275
X8.0484Y-5.375
X8.0484Y-5.475
X8.0484Y-5.575
X8.0484Y-5.675
X8.0484Y-5.775
X8.0998Y-2.4266
X8.0998Y-3.0266
X8.1Y-3.75
X8.1Y-3.85
X8.1Y-3.95
X8.1Y-4.05
X8.1Y-4.15
X8.1Y-4.25
X8.1Y-4.75
X8.1998Y-2.4266
X8.1998Y-3.0266
X8.2Y-3.65
X8.2Y-3.75
X8.2Y-3.85
X8.2Y-3.95
X8.2Y-4.05
X8.2Y-4.15
X8.2Y-4.25
X8.2Y-4.35
X8.2969Y-4.75
X8.2998Y-2.4266
X8.2998Y-3.0266
X8.3Y-3.65
X8.3Y-3.75
X8.3Y-4.25
X8.3Y-4.35
X8.3484Y-4.875
X8.3484Y-4.975
X8.3484Y-5.075
X8.3484Y-5.175
X8.3484Y-5.275
X8.3484Y-5.375
X8.3484Y-5.475
X8.3484Y-5.575
X8.3484Y-5.675
X8.3484Y-5.775
X8.3516Y-3.4516
X8.3998Y-2.4266
X8.3998Y-3.0266
X8.4Y-3.65
X8.4Y-3.75
X8.4Y-4.25
X8.4Y-4.35
X8.4998Y-2.4266
X8.4998Y-3.0266
X8.5Y-3.65
X8.5Y-3.75
X8.5Y-4.25
X8.5Y-4.35
X8.5484Y-3.4516
X8.5988Y-5.0752
X8.5988Y-5.1752
X8.5988Y-5.2752
X8.5988Y-5.3752
X8.5988Y-5.4752
X8.5988Y-5.5752
X8.5988Y-5.6752
X8.5988Y-5.7752
X8.6Y-3.65
X8.6Y-3.75
X8.6Y-4.25
X8.6Y-4.35
X8.65Y-4.9502
X8.7Y-3.65
X8.7Y-3.75
X8.7Y-3.85
X8.7Y-3.95
X8.7Y-4.05
X8.7Y-4.15
X8.7Y-4.25
X8.7Y-4.35
X8.8Y-3.75
X8.8Y-3.85
X8.8Y-3.95
X8.8Y-4.05
X8.8Y-4.15
X8.8Y-4.25
X8.8469Y-4.9502
X8.8988Y-5.0752
X8.8988Y-5.1752
X8.8988Y-5.2752
X8.8988Y-5.3752
X8.8988Y-5.4752
X8.8988Y-5.5752
X8.8988Y-5.6752
X8.8988Y-5.7752
T3
X7.2Y-3.85
X7.2Y-3.95
X7.2Y-4.05
X7.2Y-4.15
X7.2Y-4.25
X7.2Y-4.35
X7.2Y-4.45
X7.2Y-4.55
X7.2Y-4.65
X7.2Y-4.75
X7.2Y-4.85
X7.2Y-4.95
X7.2Y-5.05
X7.2Y-5.15
X7.2Y-5.25
X7.2Y-5.35
X7.2Y-5.45
X7.2Y-5.55
X7.2Y-5.65
X7.2Y-5.75
X7.8Y-3.85
X7.8Y-3.95
X7.8Y-4.05
X7.8Y-4.15
X7.8Y-4.25
X7.8Y-4.35
X7.8Y-4.45
X7.8Y-4.55
X7.8Y-4.65
X7.8Y-4.75
X7.8Y-4.85
X7.8Y-4.95
X7.8Y-5.05
X7.8Y-5.15
X7.8Y-5.25
X7.8Y-5.35
X7.8Y-5.45
X7.8Y-5.55
X7.8Y-5.65
X7.8Y-5.75
X8.9Y-2.425
X8.9Y-2.525
X8.9Y-2.625
X8.9Y-2.725
X8.9Y-2.825
X8.9Y-2.925
T0
M30
