%TF.GenerationSoftware,KiCad,Pcbnew,7.0.7*%
%TF.CreationDate,2024-06-12T19:49:13-05:00*%
%TF.ProjectId,Nabu_MEGAMAPPER,4e616275-5f4d-4454-9741-4d4150504552,rev?*%
%TF.SameCoordinates,Original*%
%TF.FileFunction,Drillmap*%
%TF.FilePolarity,Positive*%
%FSLAX45Y45*%
G04 Gerber Fmt 4.5, Leading zero omitted, Abs format (unit mm)*
G04 Created by KiCad (PCBNEW 7.0.7) date 2024-06-12 19:49:13*
%MOMM*%
%LPD*%
G01*
G04 APERTURE LIST*
%ADD10C,0.100000*%
%ADD11C,0.200000*%
G04 APERTURE END LIST*
D10*
X6985000Y-5905500D02*
X22860000Y-5905500D01*
X22860000Y-15049500D01*
X6985000Y-15049500D01*
X6985000Y-5905500D01*
D11*
X7240777Y-15365984D02*
X7240777Y-15165984D01*
X7240777Y-15165984D02*
X7288396Y-15165984D01*
X7288396Y-15165984D02*
X7316967Y-15175508D01*
X7316967Y-15175508D02*
X7336015Y-15194555D01*
X7336015Y-15194555D02*
X7345539Y-15213603D01*
X7345539Y-15213603D02*
X7355062Y-15251698D01*
X7355062Y-15251698D02*
X7355062Y-15280269D01*
X7355062Y-15280269D02*
X7345539Y-15318365D01*
X7345539Y-15318365D02*
X7336015Y-15337412D01*
X7336015Y-15337412D02*
X7316967Y-15356460D01*
X7316967Y-15356460D02*
X7288396Y-15365984D01*
X7288396Y-15365984D02*
X7240777Y-15365984D01*
X7440777Y-15365984D02*
X7440777Y-15232650D01*
X7440777Y-15270746D02*
X7450301Y-15251698D01*
X7450301Y-15251698D02*
X7459824Y-15242174D01*
X7459824Y-15242174D02*
X7478872Y-15232650D01*
X7478872Y-15232650D02*
X7497920Y-15232650D01*
X7564586Y-15365984D02*
X7564586Y-15232650D01*
X7564586Y-15165984D02*
X7555062Y-15175508D01*
X7555062Y-15175508D02*
X7564586Y-15185031D01*
X7564586Y-15185031D02*
X7574110Y-15175508D01*
X7574110Y-15175508D02*
X7564586Y-15165984D01*
X7564586Y-15165984D02*
X7564586Y-15185031D01*
X7688396Y-15365984D02*
X7669348Y-15356460D01*
X7669348Y-15356460D02*
X7659824Y-15337412D01*
X7659824Y-15337412D02*
X7659824Y-15165984D01*
X7793158Y-15365984D02*
X7774110Y-15356460D01*
X7774110Y-15356460D02*
X7764586Y-15337412D01*
X7764586Y-15337412D02*
X7764586Y-15165984D01*
X8021729Y-15365984D02*
X8021729Y-15165984D01*
X8021729Y-15165984D02*
X8088396Y-15308841D01*
X8088396Y-15308841D02*
X8155062Y-15165984D01*
X8155062Y-15165984D02*
X8155062Y-15365984D01*
X8336015Y-15365984D02*
X8336015Y-15261222D01*
X8336015Y-15261222D02*
X8326491Y-15242174D01*
X8326491Y-15242174D02*
X8307443Y-15232650D01*
X8307443Y-15232650D02*
X8269348Y-15232650D01*
X8269348Y-15232650D02*
X8250301Y-15242174D01*
X8336015Y-15356460D02*
X8316967Y-15365984D01*
X8316967Y-15365984D02*
X8269348Y-15365984D01*
X8269348Y-15365984D02*
X8250301Y-15356460D01*
X8250301Y-15356460D02*
X8240777Y-15337412D01*
X8240777Y-15337412D02*
X8240777Y-15318365D01*
X8240777Y-15318365D02*
X8250301Y-15299317D01*
X8250301Y-15299317D02*
X8269348Y-15289793D01*
X8269348Y-15289793D02*
X8316967Y-15289793D01*
X8316967Y-15289793D02*
X8336015Y-15280269D01*
X8431253Y-15232650D02*
X8431253Y-15432650D01*
X8431253Y-15242174D02*
X8450301Y-15232650D01*
X8450301Y-15232650D02*
X8488396Y-15232650D01*
X8488396Y-15232650D02*
X8507444Y-15242174D01*
X8507444Y-15242174D02*
X8516967Y-15251698D01*
X8516967Y-15251698D02*
X8526491Y-15270746D01*
X8526491Y-15270746D02*
X8526491Y-15327888D01*
X8526491Y-15327888D02*
X8516967Y-15346936D01*
X8516967Y-15346936D02*
X8507444Y-15356460D01*
X8507444Y-15356460D02*
X8488396Y-15365984D01*
X8488396Y-15365984D02*
X8450301Y-15365984D01*
X8450301Y-15365984D02*
X8431253Y-15356460D01*
X8612205Y-15346936D02*
X8621729Y-15356460D01*
X8621729Y-15356460D02*
X8612205Y-15365984D01*
X8612205Y-15365984D02*
X8602682Y-15356460D01*
X8602682Y-15356460D02*
X8612205Y-15346936D01*
X8612205Y-15346936D02*
X8612205Y-15365984D01*
X8612205Y-15242174D02*
X8621729Y-15251698D01*
X8621729Y-15251698D02*
X8612205Y-15261222D01*
X8612205Y-15261222D02*
X8602682Y-15251698D01*
X8602682Y-15251698D02*
X8612205Y-15242174D01*
X8612205Y-15242174D02*
X8612205Y-15261222D01*
M02*
