%TF.GenerationSoftware,KiCad,Pcbnew,7.0.7*%
%TF.CreationDate,2024-06-12T19:49:13-05:00*%
%TF.ProjectId,Nabu_MEGAMAPPER,4e616275-5f4d-4454-9741-4d4150504552,rev?*%
%TF.SameCoordinates,Original*%
%TF.FileFunction,Drillmap*%
%TF.FilePolarity,Positive*%
%FSLAX45Y45*%
G04 Gerber Fmt 4.5, Leading zero omitted, Abs format (unit mm)*
G04 Created by KiCad (PCBNEW 7.0.7) date 2024-06-12 19:49:13*
%MOMM*%
%LPD*%
G01*
G04 APERTURE LIST*
%ADD10C,0.100000*%
%ADD11C,0.200000*%
%ADD12C,0.040000*%
%ADD13C,0.080000*%
G04 APERTURE END LIST*
D10*
X6985000Y-5905500D02*
X22860000Y-5905500D01*
X22860000Y-15049500D01*
X6985000Y-15049500D01*
X6985000Y-5905500D01*
D11*
D12*
X8265000Y-9898630D02*
X8305000Y-9938630D01*
X8305000Y-9898630D02*
X8265000Y-9938630D01*
X8403900Y-10648000D02*
X8443900Y-10688000D01*
X8443900Y-10648000D02*
X8403900Y-10688000D01*
X8957050Y-9834770D02*
X8997050Y-9874770D01*
X8997050Y-9834770D02*
X8957050Y-9874770D01*
X9258480Y-7767190D02*
X9298480Y-7807190D01*
X9298480Y-7767190D02*
X9258480Y-7807190D01*
X10076500Y-7800040D02*
X10116500Y-7840040D01*
X10116500Y-7800040D02*
X10076500Y-7840040D01*
X10350110Y-8306690D02*
X10390110Y-8346690D01*
X10390110Y-8306690D02*
X10350110Y-8346690D01*
X10603150Y-6478050D02*
X10643150Y-6518050D01*
X10643150Y-6478050D02*
X10603150Y-6518050D01*
X10804900Y-9056480D02*
X10844900Y-9096480D01*
X10844900Y-9056480D02*
X10804900Y-9096480D01*
X11040900Y-7489560D02*
X11080900Y-7529560D01*
X11080900Y-7489560D02*
X11040900Y-7529560D01*
X11234310Y-7925200D02*
X11274310Y-7965200D01*
X11274310Y-7925200D02*
X11234310Y-7965200D01*
X11654990Y-9509240D02*
X11694990Y-9549240D01*
X11694990Y-9509240D02*
X11654990Y-9549240D01*
X11801550Y-9533290D02*
X11841550Y-9573290D01*
X11841550Y-9533290D02*
X11801550Y-9573290D01*
X11984490Y-8820670D02*
X12024490Y-8860670D01*
X12024490Y-8820670D02*
X11984490Y-8860670D01*
X12059210Y-9938640D02*
X12099210Y-9978640D01*
X12099210Y-9938640D02*
X12059210Y-9978640D01*
X12145800Y-10188040D02*
X12185800Y-10228040D01*
X12185800Y-10188040D02*
X12145800Y-10228040D01*
X12569870Y-8291430D02*
X12609870Y-8331430D01*
X12609870Y-8291430D02*
X12569870Y-8331430D01*
X12588740Y-6665390D02*
X12628740Y-6705390D01*
X12628740Y-6665390D02*
X12588740Y-6705390D01*
X12605610Y-9920890D02*
X12645610Y-9960890D01*
X12645610Y-9920890D02*
X12605610Y-9960890D01*
X12639100Y-9576870D02*
X12679100Y-9616870D01*
X12679100Y-9576870D02*
X12639100Y-9616870D01*
X12800670Y-9624920D02*
X12840670Y-9664920D01*
X12840670Y-9624920D02*
X12800670Y-9664920D01*
X13073870Y-7244620D02*
X13113870Y-7284620D01*
X13113870Y-7244620D02*
X13073870Y-7284620D01*
X13307680Y-7932730D02*
X13347680Y-7972730D01*
X13347680Y-7932730D02*
X13307680Y-7972730D01*
X13374400Y-9862770D02*
X13414400Y-9902770D01*
X13414400Y-9862770D02*
X13374400Y-9902770D01*
X13621330Y-9823220D02*
X13661330Y-9863220D01*
X13661330Y-9823220D02*
X13621330Y-9863220D01*
X13775430Y-8114360D02*
X13815430Y-8154360D01*
X13815430Y-8114360D02*
X13775430Y-8154360D01*
X13789470Y-6353260D02*
X13829470Y-6393260D01*
X13829470Y-6353260D02*
X13789470Y-6393260D01*
X13823000Y-9779700D02*
X13863000Y-9819700D01*
X13863000Y-9779700D02*
X13823000Y-9819700D01*
X13841430Y-9557740D02*
X13881430Y-9597740D01*
X13881430Y-9557740D02*
X13841430Y-9597740D01*
X14016430Y-6721590D02*
X14056430Y-6761590D01*
X14056430Y-6721590D02*
X14016430Y-6761590D01*
X14276350Y-7356200D02*
X14316350Y-7396200D01*
X14316350Y-7356200D02*
X14276350Y-7396200D01*
X14371500Y-7415580D02*
X14411500Y-7455580D01*
X14411500Y-7415580D02*
X14371500Y-7455580D01*
X14632060Y-7115180D02*
X14672060Y-7155180D01*
X14672060Y-7115180D02*
X14632060Y-7155180D01*
X14722280Y-8581880D02*
X14762280Y-8621880D01*
X14762280Y-8581880D02*
X14722280Y-8621880D01*
X14723660Y-6518560D02*
X14763660Y-6558560D01*
X14763660Y-6518560D02*
X14723660Y-6558560D01*
X14795650Y-9056480D02*
X14835650Y-9096480D01*
X14835650Y-9056480D02*
X14795650Y-9096480D01*
X14822710Y-10054270D02*
X14862710Y-10094270D01*
X14862710Y-10054270D02*
X14822710Y-10094270D01*
X14948560Y-9957330D02*
X14988560Y-9997330D01*
X14988560Y-9957330D02*
X14948560Y-9997330D01*
X15115010Y-9193800D02*
X15155010Y-9233800D01*
X15155010Y-9193800D02*
X15115010Y-9233800D01*
X15393690Y-8749250D02*
X15433690Y-8789250D01*
X15433690Y-8749250D02*
X15393690Y-8789250D01*
X15906760Y-10410900D02*
X15946760Y-10450900D01*
X15946760Y-10410900D02*
X15906760Y-10450900D01*
X15932300Y-8804130D02*
X15972300Y-8844130D01*
X15972300Y-8804130D02*
X15932300Y-8844130D01*
X16002040Y-11173570D02*
X16042040Y-11213570D01*
X16042040Y-11173570D02*
X16002040Y-11213570D01*
X16278070Y-8350760D02*
X16318070Y-8390760D01*
X16318070Y-8350760D02*
X16278070Y-8390760D01*
X16403570Y-8704020D02*
X16443570Y-8744020D01*
X16443570Y-8704020D02*
X16403570Y-8744020D01*
X16502350Y-6459990D02*
X16542350Y-6499990D01*
X16542350Y-6459990D02*
X16502350Y-6499990D01*
X16851930Y-13180610D02*
X16891930Y-13220610D01*
X16891930Y-13180610D02*
X16851930Y-13220610D01*
X17051460Y-8686080D02*
X17091460Y-8726080D01*
X17091460Y-8686080D02*
X17051460Y-8726080D01*
X17177340Y-9696940D02*
X17217340Y-9736940D01*
X17217340Y-9696940D02*
X17177340Y-9736940D01*
X17262450Y-9461820D02*
X17302450Y-9501820D01*
X17302450Y-9461820D02*
X17262450Y-9501820D01*
X17337620Y-8403030D02*
X17377620Y-8443030D01*
X17377620Y-8403030D02*
X17337620Y-8443030D01*
X17340870Y-8575700D02*
X17380870Y-8615700D01*
X17380870Y-8575700D02*
X17340870Y-8615700D01*
X17480490Y-8685990D02*
X17520490Y-8725990D01*
X17520490Y-8685990D02*
X17480490Y-8725990D01*
X17538640Y-12694460D02*
X17578640Y-12734460D01*
X17578640Y-12694460D02*
X17538640Y-12734460D01*
X17543830Y-13456460D02*
X17583830Y-13496460D01*
X17583830Y-13456460D02*
X17543830Y-13496460D01*
X17702360Y-10581230D02*
X17742360Y-10621230D01*
X17742360Y-10581230D02*
X17702360Y-10621230D01*
X17848980Y-10919370D02*
X17888980Y-10959370D01*
X17888980Y-10919370D02*
X17848980Y-10959370D01*
X17933990Y-13803030D02*
X17973990Y-13843030D01*
X17973990Y-13803030D02*
X17933990Y-13843030D01*
X17971560Y-10423770D02*
X18011560Y-10463770D01*
X18011560Y-10423770D02*
X17971560Y-10463770D01*
X18046890Y-13416100D02*
X18086890Y-13456100D01*
X18086890Y-13416100D02*
X18046890Y-13456100D01*
X18121300Y-10036920D02*
X18161300Y-10076920D01*
X18161300Y-10036920D02*
X18121300Y-10076920D01*
X18240790Y-7179320D02*
X18280790Y-7219320D01*
X18280790Y-7179320D02*
X18240790Y-7219320D01*
X18548720Y-12633420D02*
X18588720Y-12673420D01*
X18588720Y-12633420D02*
X18548720Y-12673420D01*
X18699150Y-13894710D02*
X18739150Y-13934710D01*
X18739150Y-13894710D02*
X18699150Y-13934710D01*
X18701820Y-10036300D02*
X18741820Y-10076300D01*
X18741820Y-10036300D02*
X18701820Y-10076300D01*
X18795290Y-12808130D02*
X18835290Y-12848130D01*
X18835290Y-12808130D02*
X18795290Y-12848130D01*
X18811490Y-13864130D02*
X18851490Y-13904130D01*
X18851490Y-13864130D02*
X18811490Y-13904130D01*
X18865600Y-12440140D02*
X18905600Y-12480140D01*
X18905600Y-12440140D02*
X18865600Y-12480140D01*
X18928260Y-7505650D02*
X18968260Y-7545650D01*
X18968260Y-7505650D02*
X18928260Y-7545650D01*
X18971550Y-10909720D02*
X19011550Y-10949720D01*
X19011550Y-10909720D02*
X18971550Y-10949720D01*
X19395460Y-13930160D02*
X19435460Y-13970160D01*
X19435460Y-13930160D02*
X19395460Y-13970160D01*
X19409460Y-10399440D02*
X19449460Y-10439440D01*
X19449460Y-10399440D02*
X19409460Y-10439440D01*
X19457270Y-7214810D02*
X19497270Y-7254810D01*
X19497270Y-7214810D02*
X19457270Y-7254810D01*
X19543050Y-10749330D02*
X19583050Y-10789330D01*
X19583050Y-10749330D02*
X19543050Y-10789330D01*
X19598820Y-10262380D02*
X19638820Y-10302380D01*
X19638820Y-10262380D02*
X19598820Y-10302380D01*
X19628410Y-8601010D02*
X19668410Y-8641010D01*
X19668410Y-8601010D02*
X19628410Y-8641010D01*
X19728950Y-8561790D02*
X19768950Y-8601790D01*
X19768950Y-8561790D02*
X19728950Y-8601790D01*
X19905780Y-12689460D02*
X19945780Y-12729460D01*
X19945780Y-12689460D02*
X19905780Y-12729460D01*
X20014360Y-8794230D02*
X20054360Y-8834230D01*
X20054360Y-8794230D02*
X20014360Y-8834230D01*
X20075170Y-10407390D02*
X20115170Y-10447390D01*
X20115170Y-10407390D02*
X20075170Y-10447390D01*
X20096250Y-10659550D02*
X20136250Y-10699550D01*
X20136250Y-10659550D02*
X20096250Y-10699550D01*
X20156760Y-8257340D02*
X20196760Y-8297340D01*
X20196760Y-8257340D02*
X20156760Y-8297340D01*
X20181460Y-14268000D02*
X20221460Y-14308000D01*
X20221460Y-14268000D02*
X20181460Y-14308000D01*
X20185140Y-8785320D02*
X20225140Y-8825320D01*
X20225140Y-8785320D02*
X20185140Y-8825320D01*
X20234320Y-13629100D02*
X20274320Y-13669100D01*
X20274320Y-13629100D02*
X20234320Y-13669100D01*
X20235160Y-10055950D02*
X20275160Y-10095950D01*
X20275160Y-10055950D02*
X20235160Y-10095950D01*
X20287050Y-8471880D02*
X20327050Y-8511880D01*
X20327050Y-8471880D02*
X20287050Y-8511880D01*
X20384880Y-8675430D02*
X20424880Y-8715430D01*
X20424880Y-8675430D02*
X20384880Y-8715430D01*
X20412300Y-7287340D02*
X20452300Y-7327340D01*
X20452300Y-7287340D02*
X20412300Y-7327340D01*
X20425260Y-11322600D02*
X20465260Y-11362600D01*
X20465260Y-11322600D02*
X20425260Y-11362600D01*
X20433070Y-7954210D02*
X20473070Y-7994210D01*
X20473070Y-7954210D02*
X20433070Y-7994210D01*
X20538170Y-7948470D02*
X20578170Y-7988470D01*
X20578170Y-7948470D02*
X20538170Y-7988470D01*
X20733630Y-12579060D02*
X20773630Y-12619060D01*
X20773630Y-12579060D02*
X20733630Y-12619060D01*
X20801740Y-11690110D02*
X20841740Y-11730110D01*
X20841740Y-11690110D02*
X20801740Y-11730110D01*
X20828050Y-8342440D02*
X20868050Y-8382440D01*
X20868050Y-8342440D02*
X20828050Y-8382440D01*
X20876850Y-11382940D02*
X20916850Y-11422940D01*
X20916850Y-11382940D02*
X20876850Y-11422940D01*
X20996070Y-10420360D02*
X21036070Y-10460360D01*
X21036070Y-10420360D02*
X20996070Y-10460360D01*
X21121230Y-11693760D02*
X21161230Y-11733760D01*
X21161230Y-11693760D02*
X21121230Y-11733760D01*
X21142240Y-11806430D02*
X21182240Y-11846430D01*
X21182240Y-11806430D02*
X21142240Y-11846430D01*
X21441840Y-11944870D02*
X21481840Y-11984870D01*
X21481840Y-11944870D02*
X21441840Y-11984870D01*
X21478130Y-11376270D02*
X21518130Y-11416270D01*
X21518130Y-11376270D02*
X21478130Y-11416270D01*
X21493170Y-10187750D02*
X21533170Y-10227750D01*
X21533170Y-10187750D02*
X21493170Y-10227750D01*
X21684330Y-7862790D02*
X21724330Y-7902790D01*
X21724330Y-7862790D02*
X21684330Y-7902790D01*
X21712950Y-10078640D02*
X21752950Y-10118640D01*
X21752950Y-10078640D02*
X21712950Y-10118640D01*
X21797440Y-11448910D02*
X21837440Y-11488910D01*
X21837440Y-11448910D02*
X21797440Y-11488910D01*
X21891870Y-8725470D02*
X21931870Y-8765470D01*
X21931870Y-8725470D02*
X21891870Y-8765470D01*
X21983890Y-8920950D02*
X22023890Y-8960950D01*
X22023890Y-8920950D02*
X21983890Y-8960950D01*
X22086890Y-9074540D02*
X22126890Y-9114540D01*
X22126890Y-9074540D02*
X22086890Y-9114540D01*
X22115380Y-11612720D02*
X22155380Y-11652720D01*
X22155380Y-11612720D02*
X22115380Y-11652720D01*
D13*
X7283000Y-9779000D02*
G75*
G03*
X7283000Y-9779000I-40000J0D01*
G01*
X7283000Y-10033000D02*
G75*
G03*
X7283000Y-10033000I-40000J0D01*
G01*
X7283000Y-10287000D02*
G75*
G03*
X7283000Y-10287000I-40000J0D01*
G01*
X7283000Y-10541000D02*
G75*
G03*
X7283000Y-10541000I-40000J0D01*
G01*
X7283000Y-10795000D02*
G75*
G03*
X7283000Y-10795000I-40000J0D01*
G01*
X7283000Y-11049000D02*
G75*
G03*
X7283000Y-11049000I-40000J0D01*
G01*
X7283000Y-11303000D02*
G75*
G03*
X7283000Y-11303000I-40000J0D01*
G01*
X7283000Y-11557000D02*
G75*
G03*
X7283000Y-11557000I-40000J0D01*
G01*
X7283000Y-11811000D02*
G75*
G03*
X7283000Y-11811000I-40000J0D01*
G01*
X7283000Y-12065000D02*
G75*
G03*
X7283000Y-12065000I-40000J0D01*
G01*
X7283000Y-12319000D02*
G75*
G03*
X7283000Y-12319000I-40000J0D01*
G01*
X7283000Y-12573000D02*
G75*
G03*
X7283000Y-12573000I-40000J0D01*
G01*
X7283000Y-12827000D02*
G75*
G03*
X7283000Y-12827000I-40000J0D01*
G01*
X7283000Y-13081000D02*
G75*
G03*
X7283000Y-13081000I-40000J0D01*
G01*
X7283000Y-13335000D02*
G75*
G03*
X7283000Y-13335000I-40000J0D01*
G01*
X7283000Y-13589000D02*
G75*
G03*
X7283000Y-13589000I-40000J0D01*
G01*
X7283000Y-13843000D02*
G75*
G03*
X7283000Y-13843000I-40000J0D01*
G01*
X7283000Y-14097000D02*
G75*
G03*
X7283000Y-14097000I-40000J0D01*
G01*
X7283000Y-14351000D02*
G75*
G03*
X7283000Y-14351000I-40000J0D01*
G01*
X7283000Y-14605000D02*
G75*
G03*
X7283000Y-14605000I-40000J0D01*
G01*
X7791000Y-9461500D02*
G75*
G03*
X7791000Y-9461500I-40000J0D01*
G01*
X7913500Y-6291500D02*
G75*
G03*
X7913500Y-6291500I-40000J0D01*
G01*
X7913500Y-6791500D02*
G75*
G03*
X7913500Y-6791500I-40000J0D01*
G01*
X8231500Y-6159500D02*
G75*
G03*
X8231500Y-6159500I-40000J0D01*
G01*
X8231500Y-6921500D02*
G75*
G03*
X8231500Y-6921500I-40000J0D01*
G01*
X8291000Y-9461500D02*
G75*
G03*
X8291000Y-9461500I-40000J0D01*
G01*
X8485500Y-6159500D02*
G75*
G03*
X8485500Y-6159500I-40000J0D01*
G01*
X8485500Y-6921500D02*
G75*
G03*
X8485500Y-6921500I-40000J0D01*
G01*
X8739500Y-6159500D02*
G75*
G03*
X8739500Y-6159500I-40000J0D01*
G01*
X8739500Y-6921500D02*
G75*
G03*
X8739500Y-6921500I-40000J0D01*
G01*
X8807000Y-9779000D02*
G75*
G03*
X8807000Y-9779000I-40000J0D01*
G01*
X8807000Y-10033000D02*
G75*
G03*
X8807000Y-10033000I-40000J0D01*
G01*
X8807000Y-10287000D02*
G75*
G03*
X8807000Y-10287000I-40000J0D01*
G01*
X8807000Y-10541000D02*
G75*
G03*
X8807000Y-10541000I-40000J0D01*
G01*
X8807000Y-10795000D02*
G75*
G03*
X8807000Y-10795000I-40000J0D01*
G01*
X8807000Y-11049000D02*
G75*
G03*
X8807000Y-11049000I-40000J0D01*
G01*
X8807000Y-11303000D02*
G75*
G03*
X8807000Y-11303000I-40000J0D01*
G01*
X8807000Y-11557000D02*
G75*
G03*
X8807000Y-11557000I-40000J0D01*
G01*
X8807000Y-11811000D02*
G75*
G03*
X8807000Y-11811000I-40000J0D01*
G01*
X8807000Y-12065000D02*
G75*
G03*
X8807000Y-12065000I-40000J0D01*
G01*
X8807000Y-12319000D02*
G75*
G03*
X8807000Y-12319000I-40000J0D01*
G01*
X8807000Y-12573000D02*
G75*
G03*
X8807000Y-12573000I-40000J0D01*
G01*
X8807000Y-12827000D02*
G75*
G03*
X8807000Y-12827000I-40000J0D01*
G01*
X8807000Y-13081000D02*
G75*
G03*
X8807000Y-13081000I-40000J0D01*
G01*
X8807000Y-13335000D02*
G75*
G03*
X8807000Y-13335000I-40000J0D01*
G01*
X8807000Y-13589000D02*
G75*
G03*
X8807000Y-13589000I-40000J0D01*
G01*
X8807000Y-13843000D02*
G75*
G03*
X8807000Y-13843000I-40000J0D01*
G01*
X8807000Y-14097000D02*
G75*
G03*
X8807000Y-14097000I-40000J0D01*
G01*
X8807000Y-14351000D02*
G75*
G03*
X8807000Y-14351000I-40000J0D01*
G01*
X8807000Y-14605000D02*
G75*
G03*
X8807000Y-14605000I-40000J0D01*
G01*
X8993500Y-6159500D02*
G75*
G03*
X8993500Y-6159500I-40000J0D01*
G01*
X8993500Y-6921500D02*
G75*
G03*
X8993500Y-6921500I-40000J0D01*
G01*
X9247500Y-6159500D02*
G75*
G03*
X9247500Y-6159500I-40000J0D01*
G01*
X9247500Y-6921500D02*
G75*
G03*
X9247500Y-6921500I-40000J0D01*
G01*
X9438000Y-7872500D02*
G75*
G03*
X9438000Y-7872500I-40000J0D01*
G01*
X9438000Y-8372500D02*
G75*
G03*
X9438000Y-8372500I-40000J0D01*
G01*
X9438000Y-9465500D02*
G75*
G03*
X9438000Y-9465500I-40000J0D01*
G01*
X9438000Y-9965500D02*
G75*
G03*
X9438000Y-9965500I-40000J0D01*
G01*
X9501500Y-6159500D02*
G75*
G03*
X9501500Y-6159500I-40000J0D01*
G01*
X9501500Y-6921500D02*
G75*
G03*
X9501500Y-6921500I-40000J0D01*
G01*
X9505000Y-10795000D02*
G75*
G03*
X9505000Y-10795000I-40000J0D01*
G01*
X9505000Y-11049000D02*
G75*
G03*
X9505000Y-11049000I-40000J0D01*
G01*
X9505000Y-11303000D02*
G75*
G03*
X9505000Y-11303000I-40000J0D01*
G01*
X9505000Y-11557000D02*
G75*
G03*
X9505000Y-11557000I-40000J0D01*
G01*
X9505000Y-11811000D02*
G75*
G03*
X9505000Y-11811000I-40000J0D01*
G01*
X9505000Y-12065000D02*
G75*
G03*
X9505000Y-12065000I-40000J0D01*
G01*
X9505000Y-12319000D02*
G75*
G03*
X9505000Y-12319000I-40000J0D01*
G01*
X9505000Y-12573000D02*
G75*
G03*
X9505000Y-12573000I-40000J0D01*
G01*
X9505000Y-12827000D02*
G75*
G03*
X9505000Y-12827000I-40000J0D01*
G01*
X9505000Y-13081000D02*
G75*
G03*
X9505000Y-13081000I-40000J0D01*
G01*
X9505000Y-13335000D02*
G75*
G03*
X9505000Y-13335000I-40000J0D01*
G01*
X9505000Y-13589000D02*
G75*
G03*
X9505000Y-13589000I-40000J0D01*
G01*
X9505000Y-13843000D02*
G75*
G03*
X9505000Y-13843000I-40000J0D01*
G01*
X9505000Y-14097000D02*
G75*
G03*
X9505000Y-14097000I-40000J0D01*
G01*
X9505000Y-14351000D02*
G75*
G03*
X9505000Y-14351000I-40000J0D01*
G01*
X9505000Y-14605000D02*
G75*
G03*
X9505000Y-14605000I-40000J0D01*
G01*
X9755500Y-6159500D02*
G75*
G03*
X9755500Y-6159500I-40000J0D01*
G01*
X9755500Y-6921500D02*
G75*
G03*
X9755500Y-6921500I-40000J0D01*
G01*
X9755500Y-7747000D02*
G75*
G03*
X9755500Y-7747000I-40000J0D01*
G01*
X9755500Y-8509000D02*
G75*
G03*
X9755500Y-8509000I-40000J0D01*
G01*
X9755500Y-9334500D02*
G75*
G03*
X9755500Y-9334500I-40000J0D01*
G01*
X9755500Y-10096500D02*
G75*
G03*
X9755500Y-10096500I-40000J0D01*
G01*
X10009500Y-6159500D02*
G75*
G03*
X10009500Y-6159500I-40000J0D01*
G01*
X10009500Y-6921500D02*
G75*
G03*
X10009500Y-6921500I-40000J0D01*
G01*
X10009500Y-7747000D02*
G75*
G03*
X10009500Y-7747000I-40000J0D01*
G01*
X10009500Y-8509000D02*
G75*
G03*
X10009500Y-8509000I-40000J0D01*
G01*
X10009500Y-9334500D02*
G75*
G03*
X10009500Y-9334500I-40000J0D01*
G01*
X10009500Y-10096500D02*
G75*
G03*
X10009500Y-10096500I-40000J0D01*
G01*
X10013500Y-10477500D02*
G75*
G03*
X10013500Y-10477500I-40000J0D01*
G01*
X10263500Y-6159500D02*
G75*
G03*
X10263500Y-6159500I-40000J0D01*
G01*
X10263500Y-6921500D02*
G75*
G03*
X10263500Y-6921500I-40000J0D01*
G01*
X10263500Y-7747000D02*
G75*
G03*
X10263500Y-7747000I-40000J0D01*
G01*
X10263500Y-8509000D02*
G75*
G03*
X10263500Y-8509000I-40000J0D01*
G01*
X10263500Y-9334500D02*
G75*
G03*
X10263500Y-9334500I-40000J0D01*
G01*
X10263500Y-10096500D02*
G75*
G03*
X10263500Y-10096500I-40000J0D01*
G01*
X10513500Y-10477500D02*
G75*
G03*
X10513500Y-10477500I-40000J0D01*
G01*
X10517500Y-6159500D02*
G75*
G03*
X10517500Y-6159500I-40000J0D01*
G01*
X10517500Y-6921500D02*
G75*
G03*
X10517500Y-6921500I-40000J0D01*
G01*
X10517500Y-7747000D02*
G75*
G03*
X10517500Y-7747000I-40000J0D01*
G01*
X10517500Y-8509000D02*
G75*
G03*
X10517500Y-8509000I-40000J0D01*
G01*
X10517500Y-9334500D02*
G75*
G03*
X10517500Y-9334500I-40000J0D01*
G01*
X10517500Y-10096500D02*
G75*
G03*
X10517500Y-10096500I-40000J0D01*
G01*
X10771500Y-7747000D02*
G75*
G03*
X10771500Y-7747000I-40000J0D01*
G01*
X10771500Y-8509000D02*
G75*
G03*
X10771500Y-8509000I-40000J0D01*
G01*
X10771500Y-9334500D02*
G75*
G03*
X10771500Y-9334500I-40000J0D01*
G01*
X10771500Y-10096500D02*
G75*
G03*
X10771500Y-10096500I-40000J0D01*
G01*
X11025500Y-7747000D02*
G75*
G03*
X11025500Y-7747000I-40000J0D01*
G01*
X11025500Y-8509000D02*
G75*
G03*
X11025500Y-8509000I-40000J0D01*
G01*
X11025500Y-9334500D02*
G75*
G03*
X11025500Y-9334500I-40000J0D01*
G01*
X11025500Y-10096500D02*
G75*
G03*
X11025500Y-10096500I-40000J0D01*
G01*
X11029000Y-10795000D02*
G75*
G03*
X11029000Y-10795000I-40000J0D01*
G01*
X11029000Y-11049000D02*
G75*
G03*
X11029000Y-11049000I-40000J0D01*
G01*
X11029000Y-11303000D02*
G75*
G03*
X11029000Y-11303000I-40000J0D01*
G01*
X11029000Y-11557000D02*
G75*
G03*
X11029000Y-11557000I-40000J0D01*
G01*
X11029000Y-11811000D02*
G75*
G03*
X11029000Y-11811000I-40000J0D01*
G01*
X11029000Y-12065000D02*
G75*
G03*
X11029000Y-12065000I-40000J0D01*
G01*
X11029000Y-12319000D02*
G75*
G03*
X11029000Y-12319000I-40000J0D01*
G01*
X11029000Y-12573000D02*
G75*
G03*
X11029000Y-12573000I-40000J0D01*
G01*
X11029000Y-12827000D02*
G75*
G03*
X11029000Y-12827000I-40000J0D01*
G01*
X11029000Y-13081000D02*
G75*
G03*
X11029000Y-13081000I-40000J0D01*
G01*
X11029000Y-13335000D02*
G75*
G03*
X11029000Y-13335000I-40000J0D01*
G01*
X11029000Y-13589000D02*
G75*
G03*
X11029000Y-13589000I-40000J0D01*
G01*
X11029000Y-13843000D02*
G75*
G03*
X11029000Y-13843000I-40000J0D01*
G01*
X11029000Y-14097000D02*
G75*
G03*
X11029000Y-14097000I-40000J0D01*
G01*
X11029000Y-14351000D02*
G75*
G03*
X11029000Y-14351000I-40000J0D01*
G01*
X11029000Y-14605000D02*
G75*
G03*
X11029000Y-14605000I-40000J0D01*
G01*
X11279500Y-6290500D02*
G75*
G03*
X11279500Y-6290500I-40000J0D01*
G01*
X11279500Y-6790500D02*
G75*
G03*
X11279500Y-6790500I-40000J0D01*
G01*
X11279500Y-7747000D02*
G75*
G03*
X11279500Y-7747000I-40000J0D01*
G01*
X11279500Y-8509000D02*
G75*
G03*
X11279500Y-8509000I-40000J0D01*
G01*
X11279500Y-9334500D02*
G75*
G03*
X11279500Y-9334500I-40000J0D01*
G01*
X11279500Y-10096500D02*
G75*
G03*
X11279500Y-10096500I-40000J0D01*
G01*
X11533500Y-7747000D02*
G75*
G03*
X11533500Y-7747000I-40000J0D01*
G01*
X11533500Y-8509000D02*
G75*
G03*
X11533500Y-8509000I-40000J0D01*
G01*
X11533500Y-9334500D02*
G75*
G03*
X11533500Y-9334500I-40000J0D01*
G01*
X11533500Y-10096500D02*
G75*
G03*
X11533500Y-10096500I-40000J0D01*
G01*
X11597000Y-6159500D02*
G75*
G03*
X11597000Y-6159500I-40000J0D01*
G01*
X11597000Y-6921500D02*
G75*
G03*
X11597000Y-6921500I-40000J0D01*
G01*
X11731500Y-10795000D02*
G75*
G03*
X11731500Y-10795000I-40000J0D01*
G01*
X11731500Y-11049000D02*
G75*
G03*
X11731500Y-11049000I-40000J0D01*
G01*
X11731500Y-11303000D02*
G75*
G03*
X11731500Y-11303000I-40000J0D01*
G01*
X11731500Y-11557000D02*
G75*
G03*
X11731500Y-11557000I-40000J0D01*
G01*
X11731500Y-11811000D02*
G75*
G03*
X11731500Y-11811000I-40000J0D01*
G01*
X11731500Y-12065000D02*
G75*
G03*
X11731500Y-12065000I-40000J0D01*
G01*
X11731500Y-12319000D02*
G75*
G03*
X11731500Y-12319000I-40000J0D01*
G01*
X11731500Y-12573000D02*
G75*
G03*
X11731500Y-12573000I-40000J0D01*
G01*
X11731500Y-12827000D02*
G75*
G03*
X11731500Y-12827000I-40000J0D01*
G01*
X11731500Y-13081000D02*
G75*
G03*
X11731500Y-13081000I-40000J0D01*
G01*
X11731500Y-13335000D02*
G75*
G03*
X11731500Y-13335000I-40000J0D01*
G01*
X11731500Y-13589000D02*
G75*
G03*
X11731500Y-13589000I-40000J0D01*
G01*
X11731500Y-13843000D02*
G75*
G03*
X11731500Y-13843000I-40000J0D01*
G01*
X11731500Y-14097000D02*
G75*
G03*
X11731500Y-14097000I-40000J0D01*
G01*
X11731500Y-14351000D02*
G75*
G03*
X11731500Y-14351000I-40000J0D01*
G01*
X11731500Y-14605000D02*
G75*
G03*
X11731500Y-14605000I-40000J0D01*
G01*
X11851000Y-6159500D02*
G75*
G03*
X11851000Y-6159500I-40000J0D01*
G01*
X11851000Y-6921500D02*
G75*
G03*
X11851000Y-6921500I-40000J0D01*
G01*
X12105000Y-6159500D02*
G75*
G03*
X12105000Y-6159500I-40000J0D01*
G01*
X12105000Y-6921500D02*
G75*
G03*
X12105000Y-6921500I-40000J0D01*
G01*
X12236000Y-10477500D02*
G75*
G03*
X12236000Y-10477500I-40000J0D01*
G01*
X12295500Y-7879000D02*
G75*
G03*
X12295500Y-7879000I-40000J0D01*
G01*
X12295500Y-8379000D02*
G75*
G03*
X12295500Y-8379000I-40000J0D01*
G01*
X12295500Y-9465500D02*
G75*
G03*
X12295500Y-9465500I-40000J0D01*
G01*
X12295500Y-9965500D02*
G75*
G03*
X12295500Y-9965500I-40000J0D01*
G01*
X12359000Y-6159500D02*
G75*
G03*
X12359000Y-6159500I-40000J0D01*
G01*
X12359000Y-6921500D02*
G75*
G03*
X12359000Y-6921500I-40000J0D01*
G01*
X12613000Y-6159500D02*
G75*
G03*
X12613000Y-6159500I-40000J0D01*
G01*
X12613000Y-6921500D02*
G75*
G03*
X12613000Y-6921500I-40000J0D01*
G01*
X12613000Y-7747000D02*
G75*
G03*
X12613000Y-7747000I-40000J0D01*
G01*
X12613000Y-8509000D02*
G75*
G03*
X12613000Y-8509000I-40000J0D01*
G01*
X12613000Y-9333500D02*
G75*
G03*
X12613000Y-9333500I-40000J0D01*
G01*
X12613000Y-10095500D02*
G75*
G03*
X12613000Y-10095500I-40000J0D01*
G01*
X12736000Y-10477500D02*
G75*
G03*
X12736000Y-10477500I-40000J0D01*
G01*
X12867000Y-6159500D02*
G75*
G03*
X12867000Y-6159500I-40000J0D01*
G01*
X12867000Y-6921500D02*
G75*
G03*
X12867000Y-6921500I-40000J0D01*
G01*
X12867000Y-7747000D02*
G75*
G03*
X12867000Y-7747000I-40000J0D01*
G01*
X12867000Y-8509000D02*
G75*
G03*
X12867000Y-8509000I-40000J0D01*
G01*
X12867000Y-9333500D02*
G75*
G03*
X12867000Y-9333500I-40000J0D01*
G01*
X12867000Y-10095500D02*
G75*
G03*
X12867000Y-10095500I-40000J0D01*
G01*
X13121000Y-6159500D02*
G75*
G03*
X13121000Y-6159500I-40000J0D01*
G01*
X13121000Y-6921500D02*
G75*
G03*
X13121000Y-6921500I-40000J0D01*
G01*
X13121000Y-7747000D02*
G75*
G03*
X13121000Y-7747000I-40000J0D01*
G01*
X13121000Y-8509000D02*
G75*
G03*
X13121000Y-8509000I-40000J0D01*
G01*
X13121000Y-9333500D02*
G75*
G03*
X13121000Y-9333500I-40000J0D01*
G01*
X13121000Y-10095500D02*
G75*
G03*
X13121000Y-10095500I-40000J0D01*
G01*
X13255500Y-10795000D02*
G75*
G03*
X13255500Y-10795000I-40000J0D01*
G01*
X13255500Y-11049000D02*
G75*
G03*
X13255500Y-11049000I-40000J0D01*
G01*
X13255500Y-11303000D02*
G75*
G03*
X13255500Y-11303000I-40000J0D01*
G01*
X13255500Y-11557000D02*
G75*
G03*
X13255500Y-11557000I-40000J0D01*
G01*
X13255500Y-11811000D02*
G75*
G03*
X13255500Y-11811000I-40000J0D01*
G01*
X13255500Y-12065000D02*
G75*
G03*
X13255500Y-12065000I-40000J0D01*
G01*
X13255500Y-12319000D02*
G75*
G03*
X13255500Y-12319000I-40000J0D01*
G01*
X13255500Y-12573000D02*
G75*
G03*
X13255500Y-12573000I-40000J0D01*
G01*
X13255500Y-12827000D02*
G75*
G03*
X13255500Y-12827000I-40000J0D01*
G01*
X13255500Y-13081000D02*
G75*
G03*
X13255500Y-13081000I-40000J0D01*
G01*
X13255500Y-13335000D02*
G75*
G03*
X13255500Y-13335000I-40000J0D01*
G01*
X13255500Y-13589000D02*
G75*
G03*
X13255500Y-13589000I-40000J0D01*
G01*
X13255500Y-13843000D02*
G75*
G03*
X13255500Y-13843000I-40000J0D01*
G01*
X13255500Y-14097000D02*
G75*
G03*
X13255500Y-14097000I-40000J0D01*
G01*
X13255500Y-14351000D02*
G75*
G03*
X13255500Y-14351000I-40000J0D01*
G01*
X13255500Y-14605000D02*
G75*
G03*
X13255500Y-14605000I-40000J0D01*
G01*
X13375000Y-6159500D02*
G75*
G03*
X13375000Y-6159500I-40000J0D01*
G01*
X13375000Y-6921500D02*
G75*
G03*
X13375000Y-6921500I-40000J0D01*
G01*
X13375000Y-7747000D02*
G75*
G03*
X13375000Y-7747000I-40000J0D01*
G01*
X13375000Y-8509000D02*
G75*
G03*
X13375000Y-8509000I-40000J0D01*
G01*
X13375000Y-9333500D02*
G75*
G03*
X13375000Y-9333500I-40000J0D01*
G01*
X13375000Y-10095500D02*
G75*
G03*
X13375000Y-10095500I-40000J0D01*
G01*
X13629000Y-6159500D02*
G75*
G03*
X13629000Y-6159500I-40000J0D01*
G01*
X13629000Y-6921500D02*
G75*
G03*
X13629000Y-6921500I-40000J0D01*
G01*
X13629000Y-7747000D02*
G75*
G03*
X13629000Y-7747000I-40000J0D01*
G01*
X13629000Y-8509000D02*
G75*
G03*
X13629000Y-8509000I-40000J0D01*
G01*
X13629000Y-9333500D02*
G75*
G03*
X13629000Y-9333500I-40000J0D01*
G01*
X13629000Y-10095500D02*
G75*
G03*
X13629000Y-10095500I-40000J0D01*
G01*
X13883000Y-6159500D02*
G75*
G03*
X13883000Y-6159500I-40000J0D01*
G01*
X13883000Y-6921500D02*
G75*
G03*
X13883000Y-6921500I-40000J0D01*
G01*
X13883000Y-7747000D02*
G75*
G03*
X13883000Y-7747000I-40000J0D01*
G01*
X13883000Y-8509000D02*
G75*
G03*
X13883000Y-8509000I-40000J0D01*
G01*
X13883000Y-9333500D02*
G75*
G03*
X13883000Y-9333500I-40000J0D01*
G01*
X13883000Y-10095500D02*
G75*
G03*
X13883000Y-10095500I-40000J0D01*
G01*
X13950000Y-10795000D02*
G75*
G03*
X13950000Y-10795000I-40000J0D01*
G01*
X13950000Y-11049000D02*
G75*
G03*
X13950000Y-11049000I-40000J0D01*
G01*
X13950000Y-11303000D02*
G75*
G03*
X13950000Y-11303000I-40000J0D01*
G01*
X13950000Y-11557000D02*
G75*
G03*
X13950000Y-11557000I-40000J0D01*
G01*
X13950000Y-11811000D02*
G75*
G03*
X13950000Y-11811000I-40000J0D01*
G01*
X13950000Y-12065000D02*
G75*
G03*
X13950000Y-12065000I-40000J0D01*
G01*
X13950000Y-12319000D02*
G75*
G03*
X13950000Y-12319000I-40000J0D01*
G01*
X13950000Y-12573000D02*
G75*
G03*
X13950000Y-12573000I-40000J0D01*
G01*
X13950000Y-12827000D02*
G75*
G03*
X13950000Y-12827000I-40000J0D01*
G01*
X13950000Y-13081000D02*
G75*
G03*
X13950000Y-13081000I-40000J0D01*
G01*
X13950000Y-13335000D02*
G75*
G03*
X13950000Y-13335000I-40000J0D01*
G01*
X13950000Y-13589000D02*
G75*
G03*
X13950000Y-13589000I-40000J0D01*
G01*
X13950000Y-13843000D02*
G75*
G03*
X13950000Y-13843000I-40000J0D01*
G01*
X13950000Y-14097000D02*
G75*
G03*
X13950000Y-14097000I-40000J0D01*
G01*
X13950000Y-14351000D02*
G75*
G03*
X13950000Y-14351000I-40000J0D01*
G01*
X13950000Y-14605000D02*
G75*
G03*
X13950000Y-14605000I-40000J0D01*
G01*
X14137000Y-7747000D02*
G75*
G03*
X14137000Y-7747000I-40000J0D01*
G01*
X14137000Y-8509000D02*
G75*
G03*
X14137000Y-8509000I-40000J0D01*
G01*
X14137000Y-9333500D02*
G75*
G03*
X14137000Y-9333500I-40000J0D01*
G01*
X14137000Y-10095500D02*
G75*
G03*
X14137000Y-10095500I-40000J0D01*
G01*
X14391000Y-7747000D02*
G75*
G03*
X14391000Y-7747000I-40000J0D01*
G01*
X14391000Y-8509000D02*
G75*
G03*
X14391000Y-8509000I-40000J0D01*
G01*
X14391000Y-9333500D02*
G75*
G03*
X14391000Y-9333500I-40000J0D01*
G01*
X14391000Y-10095500D02*
G75*
G03*
X14391000Y-10095500I-40000J0D01*
G01*
X14458500Y-10477500D02*
G75*
G03*
X14458500Y-10477500I-40000J0D01*
G01*
X14645000Y-6290500D02*
G75*
G03*
X14645000Y-6290500I-40000J0D01*
G01*
X14645000Y-6790500D02*
G75*
G03*
X14645000Y-6790500I-40000J0D01*
G01*
X14958500Y-10477500D02*
G75*
G03*
X14958500Y-10477500I-40000J0D01*
G01*
X14962500Y-6159500D02*
G75*
G03*
X14962500Y-6159500I-40000J0D01*
G01*
X14962500Y-6921500D02*
G75*
G03*
X14962500Y-6921500I-40000J0D01*
G01*
X15151500Y-9465500D02*
G75*
G03*
X15151500Y-9465500I-40000J0D01*
G01*
X15151500Y-9965500D02*
G75*
G03*
X15151500Y-9965500I-40000J0D01*
G01*
X15153000Y-7882000D02*
G75*
G03*
X15153000Y-7882000I-40000J0D01*
G01*
X15153000Y-8382000D02*
G75*
G03*
X15153000Y-8382000I-40000J0D01*
G01*
X15216500Y-6159500D02*
G75*
G03*
X15216500Y-6159500I-40000J0D01*
G01*
X15216500Y-6921500D02*
G75*
G03*
X15216500Y-6921500I-40000J0D01*
G01*
X15470500Y-6159500D02*
G75*
G03*
X15470500Y-6159500I-40000J0D01*
G01*
X15470500Y-6921500D02*
G75*
G03*
X15470500Y-6921500I-40000J0D01*
G01*
X15470500Y-7747000D02*
G75*
G03*
X15470500Y-7747000I-40000J0D01*
G01*
X15470500Y-8509000D02*
G75*
G03*
X15470500Y-8509000I-40000J0D01*
G01*
X15470500Y-9333500D02*
G75*
G03*
X15470500Y-9333500I-40000J0D01*
G01*
X15470500Y-10095500D02*
G75*
G03*
X15470500Y-10095500I-40000J0D01*
G01*
X15474000Y-10795000D02*
G75*
G03*
X15474000Y-10795000I-40000J0D01*
G01*
X15474000Y-11049000D02*
G75*
G03*
X15474000Y-11049000I-40000J0D01*
G01*
X15474000Y-11303000D02*
G75*
G03*
X15474000Y-11303000I-40000J0D01*
G01*
X15474000Y-11557000D02*
G75*
G03*
X15474000Y-11557000I-40000J0D01*
G01*
X15474000Y-11811000D02*
G75*
G03*
X15474000Y-11811000I-40000J0D01*
G01*
X15474000Y-12065000D02*
G75*
G03*
X15474000Y-12065000I-40000J0D01*
G01*
X15474000Y-12319000D02*
G75*
G03*
X15474000Y-12319000I-40000J0D01*
G01*
X15474000Y-12573000D02*
G75*
G03*
X15474000Y-12573000I-40000J0D01*
G01*
X15474000Y-12827000D02*
G75*
G03*
X15474000Y-12827000I-40000J0D01*
G01*
X15474000Y-13081000D02*
G75*
G03*
X15474000Y-13081000I-40000J0D01*
G01*
X15474000Y-13335000D02*
G75*
G03*
X15474000Y-13335000I-40000J0D01*
G01*
X15474000Y-13589000D02*
G75*
G03*
X15474000Y-13589000I-40000J0D01*
G01*
X15474000Y-13843000D02*
G75*
G03*
X15474000Y-13843000I-40000J0D01*
G01*
X15474000Y-14097000D02*
G75*
G03*
X15474000Y-14097000I-40000J0D01*
G01*
X15474000Y-14351000D02*
G75*
G03*
X15474000Y-14351000I-40000J0D01*
G01*
X15474000Y-14605000D02*
G75*
G03*
X15474000Y-14605000I-40000J0D01*
G01*
X15724500Y-6159500D02*
G75*
G03*
X15724500Y-6159500I-40000J0D01*
G01*
X15724500Y-6921500D02*
G75*
G03*
X15724500Y-6921500I-40000J0D01*
G01*
X15724500Y-7747000D02*
G75*
G03*
X15724500Y-7747000I-40000J0D01*
G01*
X15724500Y-8509000D02*
G75*
G03*
X15724500Y-8509000I-40000J0D01*
G01*
X15724500Y-9333500D02*
G75*
G03*
X15724500Y-9333500I-40000J0D01*
G01*
X15724500Y-10095500D02*
G75*
G03*
X15724500Y-10095500I-40000J0D01*
G01*
X15978500Y-6159500D02*
G75*
G03*
X15978500Y-6159500I-40000J0D01*
G01*
X15978500Y-6921500D02*
G75*
G03*
X15978500Y-6921500I-40000J0D01*
G01*
X15978500Y-7747000D02*
G75*
G03*
X15978500Y-7747000I-40000J0D01*
G01*
X15978500Y-8509000D02*
G75*
G03*
X15978500Y-8509000I-40000J0D01*
G01*
X15978500Y-9333500D02*
G75*
G03*
X15978500Y-9333500I-40000J0D01*
G01*
X15978500Y-10095500D02*
G75*
G03*
X15978500Y-10095500I-40000J0D01*
G01*
X16168500Y-10795000D02*
G75*
G03*
X16168500Y-10795000I-40000J0D01*
G01*
X16168500Y-11049000D02*
G75*
G03*
X16168500Y-11049000I-40000J0D01*
G01*
X16168500Y-11303000D02*
G75*
G03*
X16168500Y-11303000I-40000J0D01*
G01*
X16168500Y-11557000D02*
G75*
G03*
X16168500Y-11557000I-40000J0D01*
G01*
X16168500Y-11811000D02*
G75*
G03*
X16168500Y-11811000I-40000J0D01*
G01*
X16168500Y-12065000D02*
G75*
G03*
X16168500Y-12065000I-40000J0D01*
G01*
X16168500Y-12319000D02*
G75*
G03*
X16168500Y-12319000I-40000J0D01*
G01*
X16168500Y-12573000D02*
G75*
G03*
X16168500Y-12573000I-40000J0D01*
G01*
X16168500Y-12827000D02*
G75*
G03*
X16168500Y-12827000I-40000J0D01*
G01*
X16168500Y-13081000D02*
G75*
G03*
X16168500Y-13081000I-40000J0D01*
G01*
X16168500Y-13335000D02*
G75*
G03*
X16168500Y-13335000I-40000J0D01*
G01*
X16168500Y-13589000D02*
G75*
G03*
X16168500Y-13589000I-40000J0D01*
G01*
X16168500Y-13843000D02*
G75*
G03*
X16168500Y-13843000I-40000J0D01*
G01*
X16168500Y-14097000D02*
G75*
G03*
X16168500Y-14097000I-40000J0D01*
G01*
X16168500Y-14351000D02*
G75*
G03*
X16168500Y-14351000I-40000J0D01*
G01*
X16168500Y-14605000D02*
G75*
G03*
X16168500Y-14605000I-40000J0D01*
G01*
X16232500Y-6159500D02*
G75*
G03*
X16232500Y-6159500I-40000J0D01*
G01*
X16232500Y-6921500D02*
G75*
G03*
X16232500Y-6921500I-40000J0D01*
G01*
X16232500Y-7747000D02*
G75*
G03*
X16232500Y-7747000I-40000J0D01*
G01*
X16232500Y-8509000D02*
G75*
G03*
X16232500Y-8509000I-40000J0D01*
G01*
X16232500Y-9333500D02*
G75*
G03*
X16232500Y-9333500I-40000J0D01*
G01*
X16232500Y-10095500D02*
G75*
G03*
X16232500Y-10095500I-40000J0D01*
G01*
X16486500Y-6159500D02*
G75*
G03*
X16486500Y-6159500I-40000J0D01*
G01*
X16486500Y-6921500D02*
G75*
G03*
X16486500Y-6921500I-40000J0D01*
G01*
X16486500Y-7747000D02*
G75*
G03*
X16486500Y-7747000I-40000J0D01*
G01*
X16486500Y-8509000D02*
G75*
G03*
X16486500Y-8509000I-40000J0D01*
G01*
X16486500Y-9333500D02*
G75*
G03*
X16486500Y-9333500I-40000J0D01*
G01*
X16486500Y-10095500D02*
G75*
G03*
X16486500Y-10095500I-40000J0D01*
G01*
X16681000Y-10477500D02*
G75*
G03*
X16681000Y-10477500I-40000J0D01*
G01*
X16740500Y-6159500D02*
G75*
G03*
X16740500Y-6159500I-40000J0D01*
G01*
X16740500Y-6921500D02*
G75*
G03*
X16740500Y-6921500I-40000J0D01*
G01*
X16740500Y-7747000D02*
G75*
G03*
X16740500Y-7747000I-40000J0D01*
G01*
X16740500Y-8509000D02*
G75*
G03*
X16740500Y-8509000I-40000J0D01*
G01*
X16740500Y-9333500D02*
G75*
G03*
X16740500Y-9333500I-40000J0D01*
G01*
X16740500Y-10095500D02*
G75*
G03*
X16740500Y-10095500I-40000J0D01*
G01*
X16994500Y-6159500D02*
G75*
G03*
X16994500Y-6159500I-40000J0D01*
G01*
X16994500Y-6921500D02*
G75*
G03*
X16994500Y-6921500I-40000J0D01*
G01*
X16994500Y-7747000D02*
G75*
G03*
X16994500Y-7747000I-40000J0D01*
G01*
X16994500Y-8509000D02*
G75*
G03*
X16994500Y-8509000I-40000J0D01*
G01*
X16994500Y-9333500D02*
G75*
G03*
X16994500Y-9333500I-40000J0D01*
G01*
X16994500Y-10095500D02*
G75*
G03*
X16994500Y-10095500I-40000J0D01*
G01*
X17181000Y-10477500D02*
G75*
G03*
X17181000Y-10477500I-40000J0D01*
G01*
X17248500Y-6159500D02*
G75*
G03*
X17248500Y-6159500I-40000J0D01*
G01*
X17248500Y-6921500D02*
G75*
G03*
X17248500Y-6921500I-40000J0D01*
G01*
X17248500Y-7747000D02*
G75*
G03*
X17248500Y-7747000I-40000J0D01*
G01*
X17248500Y-8509000D02*
G75*
G03*
X17248500Y-8509000I-40000J0D01*
G01*
X17248500Y-9333500D02*
G75*
G03*
X17248500Y-9333500I-40000J0D01*
G01*
X17248500Y-10095500D02*
G75*
G03*
X17248500Y-10095500I-40000J0D01*
G01*
X17692500Y-10795000D02*
G75*
G03*
X17692500Y-10795000I-40000J0D01*
G01*
X17692500Y-11049000D02*
G75*
G03*
X17692500Y-11049000I-40000J0D01*
G01*
X17692500Y-11303000D02*
G75*
G03*
X17692500Y-11303000I-40000J0D01*
G01*
X17692500Y-11557000D02*
G75*
G03*
X17692500Y-11557000I-40000J0D01*
G01*
X17692500Y-11811000D02*
G75*
G03*
X17692500Y-11811000I-40000J0D01*
G01*
X17692500Y-12065000D02*
G75*
G03*
X17692500Y-12065000I-40000J0D01*
G01*
X17692500Y-12319000D02*
G75*
G03*
X17692500Y-12319000I-40000J0D01*
G01*
X17692500Y-12573000D02*
G75*
G03*
X17692500Y-12573000I-40000J0D01*
G01*
X17692500Y-12827000D02*
G75*
G03*
X17692500Y-12827000I-40000J0D01*
G01*
X17692500Y-13081000D02*
G75*
G03*
X17692500Y-13081000I-40000J0D01*
G01*
X17692500Y-13335000D02*
G75*
G03*
X17692500Y-13335000I-40000J0D01*
G01*
X17692500Y-13589000D02*
G75*
G03*
X17692500Y-13589000I-40000J0D01*
G01*
X17692500Y-13843000D02*
G75*
G03*
X17692500Y-13843000I-40000J0D01*
G01*
X17692500Y-14097000D02*
G75*
G03*
X17692500Y-14097000I-40000J0D01*
G01*
X17692500Y-14351000D02*
G75*
G03*
X17692500Y-14351000I-40000J0D01*
G01*
X17692500Y-14605000D02*
G75*
G03*
X17692500Y-14605000I-40000J0D01*
G01*
X18010500Y-8449500D02*
G75*
G03*
X18010500Y-8449500I-40000J0D01*
G01*
X18010500Y-8949500D02*
G75*
G03*
X18010500Y-8949500I-40000J0D01*
G01*
X18328000Y-8318500D02*
G75*
G03*
X18328000Y-8318500I-40000J0D01*
G01*
X18328000Y-9080500D02*
G75*
G03*
X18328000Y-9080500I-40000J0D01*
G01*
X18518500Y-6735000D02*
G75*
G03*
X18518500Y-6735000I-40000J0D01*
G01*
X18518500Y-7235000D02*
G75*
G03*
X18518500Y-7235000I-40000J0D01*
G01*
X18582000Y-8318500D02*
G75*
G03*
X18582000Y-8318500I-40000J0D01*
G01*
X18582000Y-9080500D02*
G75*
G03*
X18582000Y-9080500I-40000J0D01*
G01*
X18835500Y-6163500D02*
G75*
G03*
X18835500Y-6163500I-40000J0D01*
G01*
X18835500Y-7687500D02*
G75*
G03*
X18835500Y-7687500I-40000J0D01*
G01*
X18836000Y-8318500D02*
G75*
G03*
X18836000Y-8318500I-40000J0D01*
G01*
X18836000Y-9080500D02*
G75*
G03*
X18836000Y-9080500I-40000J0D01*
G01*
X18963000Y-12319000D02*
G75*
G03*
X18963000Y-12319000I-40000J0D01*
G01*
X19089500Y-6163500D02*
G75*
G03*
X19089500Y-6163500I-40000J0D01*
G01*
X19089500Y-7687500D02*
G75*
G03*
X19089500Y-7687500I-40000J0D01*
G01*
X19090000Y-8318500D02*
G75*
G03*
X19090000Y-8318500I-40000J0D01*
G01*
X19090000Y-9080500D02*
G75*
G03*
X19090000Y-9080500I-40000J0D01*
G01*
X19213000Y-12319000D02*
G75*
G03*
X19213000Y-12319000I-40000J0D01*
G01*
X19343500Y-6163500D02*
G75*
G03*
X19343500Y-6163500I-40000J0D01*
G01*
X19343500Y-7687500D02*
G75*
G03*
X19343500Y-7687500I-40000J0D01*
G01*
X19344000Y-8318500D02*
G75*
G03*
X19344000Y-8318500I-40000J0D01*
G01*
X19344000Y-9080500D02*
G75*
G03*
X19344000Y-9080500I-40000J0D01*
G01*
X19597500Y-6163500D02*
G75*
G03*
X19597500Y-6163500I-40000J0D01*
G01*
X19597500Y-7687500D02*
G75*
G03*
X19597500Y-7687500I-40000J0D01*
G01*
X19598000Y-8318500D02*
G75*
G03*
X19598000Y-8318500I-40000J0D01*
G01*
X19598000Y-9080500D02*
G75*
G03*
X19598000Y-9080500I-40000J0D01*
G01*
X19851500Y-6163500D02*
G75*
G03*
X19851500Y-6163500I-40000J0D01*
G01*
X19851500Y-7687500D02*
G75*
G03*
X19851500Y-7687500I-40000J0D01*
G01*
X19852000Y-8318500D02*
G75*
G03*
X19852000Y-8318500I-40000J0D01*
G01*
X19852000Y-9080500D02*
G75*
G03*
X19852000Y-9080500I-40000J0D01*
G01*
X20105500Y-6163500D02*
G75*
G03*
X20105500Y-6163500I-40000J0D01*
G01*
X20105500Y-7687500D02*
G75*
G03*
X20105500Y-7687500I-40000J0D01*
G01*
X20359500Y-6163500D02*
G75*
G03*
X20359500Y-6163500I-40000J0D01*
G01*
X20359500Y-7687500D02*
G75*
G03*
X20359500Y-7687500I-40000J0D01*
G01*
X20483000Y-12382500D02*
G75*
G03*
X20483000Y-12382500I-40000J0D01*
G01*
X20483000Y-12636500D02*
G75*
G03*
X20483000Y-12636500I-40000J0D01*
G01*
X20483000Y-12890500D02*
G75*
G03*
X20483000Y-12890500I-40000J0D01*
G01*
X20483000Y-13144500D02*
G75*
G03*
X20483000Y-13144500I-40000J0D01*
G01*
X20483000Y-13398500D02*
G75*
G03*
X20483000Y-13398500I-40000J0D01*
G01*
X20483000Y-13652500D02*
G75*
G03*
X20483000Y-13652500I-40000J0D01*
G01*
X20483000Y-13906500D02*
G75*
G03*
X20483000Y-13906500I-40000J0D01*
G01*
X20483000Y-14160500D02*
G75*
G03*
X20483000Y-14160500I-40000J0D01*
G01*
X20483000Y-14414500D02*
G75*
G03*
X20483000Y-14414500I-40000J0D01*
G01*
X20483000Y-14668500D02*
G75*
G03*
X20483000Y-14668500I-40000J0D01*
G01*
X20613500Y-6163500D02*
G75*
G03*
X20613500Y-6163500I-40000J0D01*
G01*
X20613500Y-7687500D02*
G75*
G03*
X20613500Y-7687500I-40000J0D01*
G01*
X20614000Y-9525000D02*
G75*
G03*
X20614000Y-9525000I-40000J0D01*
G01*
X20614000Y-9779000D02*
G75*
G03*
X20614000Y-9779000I-40000J0D01*
G01*
X20614000Y-10033000D02*
G75*
G03*
X20614000Y-10033000I-40000J0D01*
G01*
X20614000Y-10287000D02*
G75*
G03*
X20614000Y-10287000I-40000J0D01*
G01*
X20614000Y-10541000D02*
G75*
G03*
X20614000Y-10541000I-40000J0D01*
G01*
X20614000Y-10795000D02*
G75*
G03*
X20614000Y-10795000I-40000J0D01*
G01*
X20614000Y-12065000D02*
G75*
G03*
X20614000Y-12065000I-40000J0D01*
G01*
X20867500Y-6163500D02*
G75*
G03*
X20867500Y-6163500I-40000J0D01*
G01*
X20867500Y-7687500D02*
G75*
G03*
X20867500Y-7687500I-40000J0D01*
G01*
X20868000Y-9271000D02*
G75*
G03*
X20868000Y-9271000I-40000J0D01*
G01*
X20868000Y-9525000D02*
G75*
G03*
X20868000Y-9525000I-40000J0D01*
G01*
X20868000Y-9779000D02*
G75*
G03*
X20868000Y-9779000I-40000J0D01*
G01*
X20868000Y-10033000D02*
G75*
G03*
X20868000Y-10033000I-40000J0D01*
G01*
X20868000Y-10287000D02*
G75*
G03*
X20868000Y-10287000I-40000J0D01*
G01*
X20868000Y-10541000D02*
G75*
G03*
X20868000Y-10541000I-40000J0D01*
G01*
X20868000Y-10795000D02*
G75*
G03*
X20868000Y-10795000I-40000J0D01*
G01*
X20868000Y-11049000D02*
G75*
G03*
X20868000Y-11049000I-40000J0D01*
G01*
X21114000Y-12065000D02*
G75*
G03*
X21114000Y-12065000I-40000J0D01*
G01*
X21121500Y-6163500D02*
G75*
G03*
X21121500Y-6163500I-40000J0D01*
G01*
X21121500Y-7687500D02*
G75*
G03*
X21121500Y-7687500I-40000J0D01*
G01*
X21122000Y-9271000D02*
G75*
G03*
X21122000Y-9271000I-40000J0D01*
G01*
X21122000Y-9525000D02*
G75*
G03*
X21122000Y-9525000I-40000J0D01*
G01*
X21122000Y-10795000D02*
G75*
G03*
X21122000Y-10795000I-40000J0D01*
G01*
X21122000Y-11049000D02*
G75*
G03*
X21122000Y-11049000I-40000J0D01*
G01*
X21245000Y-12382500D02*
G75*
G03*
X21245000Y-12382500I-40000J0D01*
G01*
X21245000Y-12636500D02*
G75*
G03*
X21245000Y-12636500I-40000J0D01*
G01*
X21245000Y-12890500D02*
G75*
G03*
X21245000Y-12890500I-40000J0D01*
G01*
X21245000Y-13144500D02*
G75*
G03*
X21245000Y-13144500I-40000J0D01*
G01*
X21245000Y-13398500D02*
G75*
G03*
X21245000Y-13398500I-40000J0D01*
G01*
X21245000Y-13652500D02*
G75*
G03*
X21245000Y-13652500I-40000J0D01*
G01*
X21245000Y-13906500D02*
G75*
G03*
X21245000Y-13906500I-40000J0D01*
G01*
X21245000Y-14160500D02*
G75*
G03*
X21245000Y-14160500I-40000J0D01*
G01*
X21245000Y-14414500D02*
G75*
G03*
X21245000Y-14414500I-40000J0D01*
G01*
X21245000Y-14668500D02*
G75*
G03*
X21245000Y-14668500I-40000J0D01*
G01*
X21253000Y-8767000D02*
G75*
G03*
X21253000Y-8767000I-40000J0D01*
G01*
X21375500Y-6163500D02*
G75*
G03*
X21375500Y-6163500I-40000J0D01*
G01*
X21375500Y-7687500D02*
G75*
G03*
X21375500Y-7687500I-40000J0D01*
G01*
X21376000Y-9271000D02*
G75*
G03*
X21376000Y-9271000I-40000J0D01*
G01*
X21376000Y-9525000D02*
G75*
G03*
X21376000Y-9525000I-40000J0D01*
G01*
X21376000Y-10795000D02*
G75*
G03*
X21376000Y-10795000I-40000J0D01*
G01*
X21376000Y-11049000D02*
G75*
G03*
X21376000Y-11049000I-40000J0D01*
G01*
X21629500Y-6163500D02*
G75*
G03*
X21629500Y-6163500I-40000J0D01*
G01*
X21629500Y-7687500D02*
G75*
G03*
X21629500Y-7687500I-40000J0D01*
G01*
X21630000Y-9271000D02*
G75*
G03*
X21630000Y-9271000I-40000J0D01*
G01*
X21630000Y-9525000D02*
G75*
G03*
X21630000Y-9525000I-40000J0D01*
G01*
X21630000Y-10795000D02*
G75*
G03*
X21630000Y-10795000I-40000J0D01*
G01*
X21630000Y-11049000D02*
G75*
G03*
X21630000Y-11049000I-40000J0D01*
G01*
X21753000Y-8767000D02*
G75*
G03*
X21753000Y-8767000I-40000J0D01*
G01*
X21881000Y-12891000D02*
G75*
G03*
X21881000Y-12891000I-40000J0D01*
G01*
X21881000Y-13145000D02*
G75*
G03*
X21881000Y-13145000I-40000J0D01*
G01*
X21881000Y-13399000D02*
G75*
G03*
X21881000Y-13399000I-40000J0D01*
G01*
X21881000Y-13653000D02*
G75*
G03*
X21881000Y-13653000I-40000J0D01*
G01*
X21881000Y-13907000D02*
G75*
G03*
X21881000Y-13907000I-40000J0D01*
G01*
X21881000Y-14161000D02*
G75*
G03*
X21881000Y-14161000I-40000J0D01*
G01*
X21881000Y-14415000D02*
G75*
G03*
X21881000Y-14415000I-40000J0D01*
G01*
X21881000Y-14669000D02*
G75*
G03*
X21881000Y-14669000I-40000J0D01*
G01*
X21884000Y-9271000D02*
G75*
G03*
X21884000Y-9271000I-40000J0D01*
G01*
X21884000Y-9525000D02*
G75*
G03*
X21884000Y-9525000I-40000J0D01*
G01*
X21884000Y-10795000D02*
G75*
G03*
X21884000Y-10795000I-40000J0D01*
G01*
X21884000Y-11049000D02*
G75*
G03*
X21884000Y-11049000I-40000J0D01*
G01*
X22011000Y-12573500D02*
G75*
G03*
X22011000Y-12573500I-40000J0D01*
G01*
X22138000Y-9271000D02*
G75*
G03*
X22138000Y-9271000I-40000J0D01*
G01*
X22138000Y-9525000D02*
G75*
G03*
X22138000Y-9525000I-40000J0D01*
G01*
X22138000Y-9779000D02*
G75*
G03*
X22138000Y-9779000I-40000J0D01*
G01*
X22138000Y-10033000D02*
G75*
G03*
X22138000Y-10033000I-40000J0D01*
G01*
X22138000Y-10287000D02*
G75*
G03*
X22138000Y-10287000I-40000J0D01*
G01*
X22138000Y-10541000D02*
G75*
G03*
X22138000Y-10541000I-40000J0D01*
G01*
X22138000Y-10795000D02*
G75*
G03*
X22138000Y-10795000I-40000J0D01*
G01*
X22138000Y-11049000D02*
G75*
G03*
X22138000Y-11049000I-40000J0D01*
G01*
X22392000Y-9525000D02*
G75*
G03*
X22392000Y-9525000I-40000J0D01*
G01*
X22392000Y-9779000D02*
G75*
G03*
X22392000Y-9779000I-40000J0D01*
G01*
X22392000Y-10033000D02*
G75*
G03*
X22392000Y-10033000I-40000J0D01*
G01*
X22392000Y-10287000D02*
G75*
G03*
X22392000Y-10287000I-40000J0D01*
G01*
X22392000Y-10541000D02*
G75*
G03*
X22392000Y-10541000I-40000J0D01*
G01*
X22392000Y-10795000D02*
G75*
G03*
X22392000Y-10795000I-40000J0D01*
G01*
X22511000Y-12573500D02*
G75*
G03*
X22511000Y-12573500I-40000J0D01*
G01*
X22643000Y-12891000D02*
G75*
G03*
X22643000Y-12891000I-40000J0D01*
G01*
X22643000Y-13145000D02*
G75*
G03*
X22643000Y-13145000I-40000J0D01*
G01*
X22643000Y-13399000D02*
G75*
G03*
X22643000Y-13399000I-40000J0D01*
G01*
X22643000Y-13653000D02*
G75*
G03*
X22643000Y-13653000I-40000J0D01*
G01*
X22643000Y-13907000D02*
G75*
G03*
X22643000Y-13907000I-40000J0D01*
G01*
X22643000Y-14161000D02*
G75*
G03*
X22643000Y-14161000I-40000J0D01*
G01*
X22643000Y-14415000D02*
G75*
G03*
X22643000Y-14415000I-40000J0D01*
G01*
X22643000Y-14669000D02*
G75*
G03*
X22643000Y-14669000I-40000J0D01*
G01*
D10*
X18288000Y-9729000D02*
X18288000Y-9829000D01*
X18238000Y-9779000D02*
X18338000Y-9779000D01*
X18288000Y-9983000D02*
X18288000Y-10083000D01*
X18238000Y-10033000D02*
X18338000Y-10033000D01*
X18288000Y-10237000D02*
X18288000Y-10337000D01*
X18238000Y-10287000D02*
X18338000Y-10287000D01*
X18288000Y-10491000D02*
X18288000Y-10591000D01*
X18238000Y-10541000D02*
X18338000Y-10541000D01*
X18288000Y-10745000D02*
X18288000Y-10845000D01*
X18238000Y-10795000D02*
X18338000Y-10795000D01*
X18288000Y-10999000D02*
X18288000Y-11099000D01*
X18238000Y-11049000D02*
X18338000Y-11049000D01*
X18288000Y-11253000D02*
X18288000Y-11353000D01*
X18238000Y-11303000D02*
X18338000Y-11303000D01*
X18288000Y-11507000D02*
X18288000Y-11607000D01*
X18238000Y-11557000D02*
X18338000Y-11557000D01*
X18288000Y-11761000D02*
X18288000Y-11861000D01*
X18238000Y-11811000D02*
X18338000Y-11811000D01*
X18288000Y-12015000D02*
X18288000Y-12115000D01*
X18238000Y-12065000D02*
X18338000Y-12065000D01*
X18288000Y-12269000D02*
X18288000Y-12369000D01*
X18238000Y-12319000D02*
X18338000Y-12319000D01*
X18288000Y-12523000D02*
X18288000Y-12623000D01*
X18238000Y-12573000D02*
X18338000Y-12573000D01*
X18288000Y-12777000D02*
X18288000Y-12877000D01*
X18238000Y-12827000D02*
X18338000Y-12827000D01*
X18288000Y-13031000D02*
X18288000Y-13131000D01*
X18238000Y-13081000D02*
X18338000Y-13081000D01*
X18288000Y-13285000D02*
X18288000Y-13385000D01*
X18238000Y-13335000D02*
X18338000Y-13335000D01*
X18288000Y-13539000D02*
X18288000Y-13639000D01*
X18238000Y-13589000D02*
X18338000Y-13589000D01*
X18288000Y-13793000D02*
X18288000Y-13893000D01*
X18238000Y-13843000D02*
X18338000Y-13843000D01*
X18288000Y-14047000D02*
X18288000Y-14147000D01*
X18238000Y-14097000D02*
X18338000Y-14097000D01*
X18288000Y-14301000D02*
X18288000Y-14401000D01*
X18238000Y-14351000D02*
X18338000Y-14351000D01*
X18288000Y-14555000D02*
X18288000Y-14655000D01*
X18238000Y-14605000D02*
X18338000Y-14605000D01*
X19812000Y-9729000D02*
X19812000Y-9829000D01*
X19762000Y-9779000D02*
X19862000Y-9779000D01*
X19812000Y-9983000D02*
X19812000Y-10083000D01*
X19762000Y-10033000D02*
X19862000Y-10033000D01*
X19812000Y-10237000D02*
X19812000Y-10337000D01*
X19762000Y-10287000D02*
X19862000Y-10287000D01*
X19812000Y-10491000D02*
X19812000Y-10591000D01*
X19762000Y-10541000D02*
X19862000Y-10541000D01*
X19812000Y-10745000D02*
X19812000Y-10845000D01*
X19762000Y-10795000D02*
X19862000Y-10795000D01*
X19812000Y-10999000D02*
X19812000Y-11099000D01*
X19762000Y-11049000D02*
X19862000Y-11049000D01*
X19812000Y-11253000D02*
X19812000Y-11353000D01*
X19762000Y-11303000D02*
X19862000Y-11303000D01*
X19812000Y-11507000D02*
X19812000Y-11607000D01*
X19762000Y-11557000D02*
X19862000Y-11557000D01*
X19812000Y-11761000D02*
X19812000Y-11861000D01*
X19762000Y-11811000D02*
X19862000Y-11811000D01*
X19812000Y-12015000D02*
X19812000Y-12115000D01*
X19762000Y-12065000D02*
X19862000Y-12065000D01*
X19812000Y-12269000D02*
X19812000Y-12369000D01*
X19762000Y-12319000D02*
X19862000Y-12319000D01*
X19812000Y-12523000D02*
X19812000Y-12623000D01*
X19762000Y-12573000D02*
X19862000Y-12573000D01*
X19812000Y-12777000D02*
X19812000Y-12877000D01*
X19762000Y-12827000D02*
X19862000Y-12827000D01*
X19812000Y-13031000D02*
X19812000Y-13131000D01*
X19762000Y-13081000D02*
X19862000Y-13081000D01*
X19812000Y-13285000D02*
X19812000Y-13385000D01*
X19762000Y-13335000D02*
X19862000Y-13335000D01*
X19812000Y-13539000D02*
X19812000Y-13639000D01*
X19762000Y-13589000D02*
X19862000Y-13589000D01*
X19812000Y-13793000D02*
X19812000Y-13893000D01*
X19762000Y-13843000D02*
X19862000Y-13843000D01*
X19812000Y-14047000D02*
X19812000Y-14147000D01*
X19762000Y-14097000D02*
X19862000Y-14097000D01*
X19812000Y-14301000D02*
X19812000Y-14401000D01*
X19762000Y-14351000D02*
X19862000Y-14351000D01*
X19812000Y-14555000D02*
X19812000Y-14655000D01*
X19762000Y-14605000D02*
X19862000Y-14605000D01*
X22606000Y-6109500D02*
X22606000Y-6209500D01*
X22556000Y-6159500D02*
X22656000Y-6159500D01*
X22606000Y-6363500D02*
X22606000Y-6463500D01*
X22556000Y-6413500D02*
X22656000Y-6413500D01*
X22606000Y-6617500D02*
X22606000Y-6717500D01*
X22556000Y-6667500D02*
X22656000Y-6667500D01*
X22606000Y-6871500D02*
X22606000Y-6971500D01*
X22556000Y-6921500D02*
X22656000Y-6921500D01*
X22606000Y-7125500D02*
X22606000Y-7225500D01*
X22556000Y-7175500D02*
X22656000Y-7175500D01*
X22606000Y-7379500D02*
X22606000Y-7479500D01*
X22556000Y-7429500D02*
X22656000Y-7429500D01*
D11*
X7240777Y-15365984D02*
X7240777Y-15165984D01*
X7240777Y-15165984D02*
X7288396Y-15165984D01*
X7288396Y-15165984D02*
X7316967Y-15175508D01*
X7316967Y-15175508D02*
X7336015Y-15194555D01*
X7336015Y-15194555D02*
X7345539Y-15213603D01*
X7345539Y-15213603D02*
X7355062Y-15251698D01*
X7355062Y-15251698D02*
X7355062Y-15280269D01*
X7355062Y-15280269D02*
X7345539Y-15318365D01*
X7345539Y-15318365D02*
X7336015Y-15337412D01*
X7336015Y-15337412D02*
X7316967Y-15356460D01*
X7316967Y-15356460D02*
X7288396Y-15365984D01*
X7288396Y-15365984D02*
X7240777Y-15365984D01*
X7440777Y-15365984D02*
X7440777Y-15232650D01*
X7440777Y-15270746D02*
X7450301Y-15251698D01*
X7450301Y-15251698D02*
X7459824Y-15242174D01*
X7459824Y-15242174D02*
X7478872Y-15232650D01*
X7478872Y-15232650D02*
X7497920Y-15232650D01*
X7564586Y-15365984D02*
X7564586Y-15232650D01*
X7564586Y-15165984D02*
X7555062Y-15175508D01*
X7555062Y-15175508D02*
X7564586Y-15185031D01*
X7564586Y-15185031D02*
X7574110Y-15175508D01*
X7574110Y-15175508D02*
X7564586Y-15165984D01*
X7564586Y-15165984D02*
X7564586Y-15185031D01*
X7688396Y-15365984D02*
X7669348Y-15356460D01*
X7669348Y-15356460D02*
X7659824Y-15337412D01*
X7659824Y-15337412D02*
X7659824Y-15165984D01*
X7793158Y-15365984D02*
X7774110Y-15356460D01*
X7774110Y-15356460D02*
X7764586Y-15337412D01*
X7764586Y-15337412D02*
X7764586Y-15165984D01*
X8021729Y-15365984D02*
X8021729Y-15165984D01*
X8021729Y-15165984D02*
X8088396Y-15308841D01*
X8088396Y-15308841D02*
X8155062Y-15165984D01*
X8155062Y-15165984D02*
X8155062Y-15365984D01*
X8336015Y-15365984D02*
X8336015Y-15261222D01*
X8336015Y-15261222D02*
X8326491Y-15242174D01*
X8326491Y-15242174D02*
X8307443Y-15232650D01*
X8307443Y-15232650D02*
X8269348Y-15232650D01*
X8269348Y-15232650D02*
X8250301Y-15242174D01*
X8336015Y-15356460D02*
X8316967Y-15365984D01*
X8316967Y-15365984D02*
X8269348Y-15365984D01*
X8269348Y-15365984D02*
X8250301Y-15356460D01*
X8250301Y-15356460D02*
X8240777Y-15337412D01*
X8240777Y-15337412D02*
X8240777Y-15318365D01*
X8240777Y-15318365D02*
X8250301Y-15299317D01*
X8250301Y-15299317D02*
X8269348Y-15289793D01*
X8269348Y-15289793D02*
X8316967Y-15289793D01*
X8316967Y-15289793D02*
X8336015Y-15280269D01*
X8431253Y-15232650D02*
X8431253Y-15432650D01*
X8431253Y-15242174D02*
X8450301Y-15232650D01*
X8450301Y-15232650D02*
X8488396Y-15232650D01*
X8488396Y-15232650D02*
X8507444Y-15242174D01*
X8507444Y-15242174D02*
X8516967Y-15251698D01*
X8516967Y-15251698D02*
X8526491Y-15270746D01*
X8526491Y-15270746D02*
X8526491Y-15327888D01*
X8526491Y-15327888D02*
X8516967Y-15346936D01*
X8516967Y-15346936D02*
X8507444Y-15356460D01*
X8507444Y-15356460D02*
X8488396Y-15365984D01*
X8488396Y-15365984D02*
X8450301Y-15365984D01*
X8450301Y-15365984D02*
X8431253Y-15356460D01*
X8612205Y-15346936D02*
X8621729Y-15356460D01*
X8621729Y-15356460D02*
X8612205Y-15365984D01*
X8612205Y-15365984D02*
X8602682Y-15356460D01*
X8602682Y-15356460D02*
X8612205Y-15346936D01*
X8612205Y-15346936D02*
X8612205Y-15365984D01*
X8612205Y-15242174D02*
X8621729Y-15251698D01*
X8621729Y-15251698D02*
X8612205Y-15261222D01*
X8612205Y-15261222D02*
X8602682Y-15251698D01*
X8602682Y-15251698D02*
X8612205Y-15242174D01*
X8612205Y-15242174D02*
X8612205Y-15261222D01*
D12*
X6940000Y-15674500D02*
X6980000Y-15714500D01*
X6980000Y-15674500D02*
X6940000Y-15714500D01*
D11*
X7278872Y-15585984D02*
X7297920Y-15585984D01*
X7297920Y-15585984D02*
X7316967Y-15595508D01*
X7316967Y-15595508D02*
X7326491Y-15605031D01*
X7326491Y-15605031D02*
X7336015Y-15624079D01*
X7336015Y-15624079D02*
X7345539Y-15662174D01*
X7345539Y-15662174D02*
X7345539Y-15709793D01*
X7345539Y-15709793D02*
X7336015Y-15747888D01*
X7336015Y-15747888D02*
X7326491Y-15766936D01*
X7326491Y-15766936D02*
X7316967Y-15776460D01*
X7316967Y-15776460D02*
X7297920Y-15785984D01*
X7297920Y-15785984D02*
X7278872Y-15785984D01*
X7278872Y-15785984D02*
X7259824Y-15776460D01*
X7259824Y-15776460D02*
X7250301Y-15766936D01*
X7250301Y-15766936D02*
X7240777Y-15747888D01*
X7240777Y-15747888D02*
X7231253Y-15709793D01*
X7231253Y-15709793D02*
X7231253Y-15662174D01*
X7231253Y-15662174D02*
X7240777Y-15624079D01*
X7240777Y-15624079D02*
X7250301Y-15605031D01*
X7250301Y-15605031D02*
X7259824Y-15595508D01*
X7259824Y-15595508D02*
X7278872Y-15585984D01*
X7431253Y-15766936D02*
X7440777Y-15776460D01*
X7440777Y-15776460D02*
X7431253Y-15785984D01*
X7431253Y-15785984D02*
X7421729Y-15776460D01*
X7421729Y-15776460D02*
X7431253Y-15766936D01*
X7431253Y-15766936D02*
X7431253Y-15785984D01*
X7612205Y-15652650D02*
X7612205Y-15785984D01*
X7564586Y-15576460D02*
X7516967Y-15719317D01*
X7516967Y-15719317D02*
X7640777Y-15719317D01*
X7755062Y-15585984D02*
X7774110Y-15585984D01*
X7774110Y-15585984D02*
X7793158Y-15595508D01*
X7793158Y-15595508D02*
X7802682Y-15605031D01*
X7802682Y-15605031D02*
X7812205Y-15624079D01*
X7812205Y-15624079D02*
X7821729Y-15662174D01*
X7821729Y-15662174D02*
X7821729Y-15709793D01*
X7821729Y-15709793D02*
X7812205Y-15747888D01*
X7812205Y-15747888D02*
X7802682Y-15766936D01*
X7802682Y-15766936D02*
X7793158Y-15776460D01*
X7793158Y-15776460D02*
X7774110Y-15785984D01*
X7774110Y-15785984D02*
X7755062Y-15785984D01*
X7755062Y-15785984D02*
X7736015Y-15776460D01*
X7736015Y-15776460D02*
X7726491Y-15766936D01*
X7726491Y-15766936D02*
X7716967Y-15747888D01*
X7716967Y-15747888D02*
X7707443Y-15709793D01*
X7707443Y-15709793D02*
X7707443Y-15662174D01*
X7707443Y-15662174D02*
X7716967Y-15624079D01*
X7716967Y-15624079D02*
X7726491Y-15605031D01*
X7726491Y-15605031D02*
X7736015Y-15595508D01*
X7736015Y-15595508D02*
X7755062Y-15585984D01*
X7945539Y-15585984D02*
X7964586Y-15585984D01*
X7964586Y-15585984D02*
X7983634Y-15595508D01*
X7983634Y-15595508D02*
X7993158Y-15605031D01*
X7993158Y-15605031D02*
X8002682Y-15624079D01*
X8002682Y-15624079D02*
X8012205Y-15662174D01*
X8012205Y-15662174D02*
X8012205Y-15709793D01*
X8012205Y-15709793D02*
X8002682Y-15747888D01*
X8002682Y-15747888D02*
X7993158Y-15766936D01*
X7993158Y-15766936D02*
X7983634Y-15776460D01*
X7983634Y-15776460D02*
X7964586Y-15785984D01*
X7964586Y-15785984D02*
X7945539Y-15785984D01*
X7945539Y-15785984D02*
X7926491Y-15776460D01*
X7926491Y-15776460D02*
X7916967Y-15766936D01*
X7916967Y-15766936D02*
X7907443Y-15747888D01*
X7907443Y-15747888D02*
X7897920Y-15709793D01*
X7897920Y-15709793D02*
X7897920Y-15662174D01*
X7897920Y-15662174D02*
X7907443Y-15624079D01*
X7907443Y-15624079D02*
X7916967Y-15605031D01*
X7916967Y-15605031D02*
X7926491Y-15595508D01*
X7926491Y-15595508D02*
X7945539Y-15585984D01*
X8097920Y-15785984D02*
X8097920Y-15652650D01*
X8097920Y-15671698D02*
X8107443Y-15662174D01*
X8107443Y-15662174D02*
X8126491Y-15652650D01*
X8126491Y-15652650D02*
X8155063Y-15652650D01*
X8155063Y-15652650D02*
X8174110Y-15662174D01*
X8174110Y-15662174D02*
X8183634Y-15681222D01*
X8183634Y-15681222D02*
X8183634Y-15785984D01*
X8183634Y-15681222D02*
X8193158Y-15662174D01*
X8193158Y-15662174D02*
X8212205Y-15652650D01*
X8212205Y-15652650D02*
X8240777Y-15652650D01*
X8240777Y-15652650D02*
X8259824Y-15662174D01*
X8259824Y-15662174D02*
X8269348Y-15681222D01*
X8269348Y-15681222D02*
X8269348Y-15785984D01*
X8364586Y-15785984D02*
X8364586Y-15652650D01*
X8364586Y-15671698D02*
X8374110Y-15662174D01*
X8374110Y-15662174D02*
X8393158Y-15652650D01*
X8393158Y-15652650D02*
X8421729Y-15652650D01*
X8421729Y-15652650D02*
X8440777Y-15662174D01*
X8440777Y-15662174D02*
X8450301Y-15681222D01*
X8450301Y-15681222D02*
X8450301Y-15785984D01*
X8450301Y-15681222D02*
X8459825Y-15662174D01*
X8459825Y-15662174D02*
X8478872Y-15652650D01*
X8478872Y-15652650D02*
X8507444Y-15652650D01*
X8507444Y-15652650D02*
X8526491Y-15662174D01*
X8526491Y-15662174D02*
X8536015Y-15681222D01*
X8536015Y-15681222D02*
X8536015Y-15785984D01*
X8926491Y-15576460D02*
X8755063Y-15833603D01*
X9183634Y-15585984D02*
X9202682Y-15585984D01*
X9202682Y-15585984D02*
X9221729Y-15595508D01*
X9221729Y-15595508D02*
X9231253Y-15605031D01*
X9231253Y-15605031D02*
X9240777Y-15624079D01*
X9240777Y-15624079D02*
X9250301Y-15662174D01*
X9250301Y-15662174D02*
X9250301Y-15709793D01*
X9250301Y-15709793D02*
X9240777Y-15747888D01*
X9240777Y-15747888D02*
X9231253Y-15766936D01*
X9231253Y-15766936D02*
X9221729Y-15776460D01*
X9221729Y-15776460D02*
X9202682Y-15785984D01*
X9202682Y-15785984D02*
X9183634Y-15785984D01*
X9183634Y-15785984D02*
X9164587Y-15776460D01*
X9164587Y-15776460D02*
X9155063Y-15766936D01*
X9155063Y-15766936D02*
X9145539Y-15747888D01*
X9145539Y-15747888D02*
X9136015Y-15709793D01*
X9136015Y-15709793D02*
X9136015Y-15662174D01*
X9136015Y-15662174D02*
X9145539Y-15624079D01*
X9145539Y-15624079D02*
X9155063Y-15605031D01*
X9155063Y-15605031D02*
X9164587Y-15595508D01*
X9164587Y-15595508D02*
X9183634Y-15585984D01*
X9336015Y-15766936D02*
X9345539Y-15776460D01*
X9345539Y-15776460D02*
X9336015Y-15785984D01*
X9336015Y-15785984D02*
X9326491Y-15776460D01*
X9326491Y-15776460D02*
X9336015Y-15766936D01*
X9336015Y-15766936D02*
X9336015Y-15785984D01*
X9469348Y-15585984D02*
X9488396Y-15585984D01*
X9488396Y-15585984D02*
X9507444Y-15595508D01*
X9507444Y-15595508D02*
X9516968Y-15605031D01*
X9516968Y-15605031D02*
X9526491Y-15624079D01*
X9526491Y-15624079D02*
X9536015Y-15662174D01*
X9536015Y-15662174D02*
X9536015Y-15709793D01*
X9536015Y-15709793D02*
X9526491Y-15747888D01*
X9526491Y-15747888D02*
X9516968Y-15766936D01*
X9516968Y-15766936D02*
X9507444Y-15776460D01*
X9507444Y-15776460D02*
X9488396Y-15785984D01*
X9488396Y-15785984D02*
X9469348Y-15785984D01*
X9469348Y-15785984D02*
X9450301Y-15776460D01*
X9450301Y-15776460D02*
X9440777Y-15766936D01*
X9440777Y-15766936D02*
X9431253Y-15747888D01*
X9431253Y-15747888D02*
X9421729Y-15709793D01*
X9421729Y-15709793D02*
X9421729Y-15662174D01*
X9421729Y-15662174D02*
X9431253Y-15624079D01*
X9431253Y-15624079D02*
X9440777Y-15605031D01*
X9440777Y-15605031D02*
X9450301Y-15595508D01*
X9450301Y-15595508D02*
X9469348Y-15585984D01*
X9726491Y-15785984D02*
X9612206Y-15785984D01*
X9669348Y-15785984D02*
X9669348Y-15585984D01*
X9669348Y-15585984D02*
X9650301Y-15614555D01*
X9650301Y-15614555D02*
X9631253Y-15633603D01*
X9631253Y-15633603D02*
X9612206Y-15643127D01*
X9907444Y-15585984D02*
X9812206Y-15585984D01*
X9812206Y-15585984D02*
X9802682Y-15681222D01*
X9802682Y-15681222D02*
X9812206Y-15671698D01*
X9812206Y-15671698D02*
X9831253Y-15662174D01*
X9831253Y-15662174D02*
X9878872Y-15662174D01*
X9878872Y-15662174D02*
X9897920Y-15671698D01*
X9897920Y-15671698D02*
X9907444Y-15681222D01*
X9907444Y-15681222D02*
X9916968Y-15700269D01*
X9916968Y-15700269D02*
X9916968Y-15747888D01*
X9916968Y-15747888D02*
X9907444Y-15766936D01*
X9907444Y-15766936D02*
X9897920Y-15776460D01*
X9897920Y-15776460D02*
X9878872Y-15785984D01*
X9878872Y-15785984D02*
X9831253Y-15785984D01*
X9831253Y-15785984D02*
X9812206Y-15776460D01*
X9812206Y-15776460D02*
X9802682Y-15766936D01*
X9983634Y-15585984D02*
X10116968Y-15585984D01*
X10116968Y-15585984D02*
X10031253Y-15785984D01*
X10183634Y-15585984D02*
X10183634Y-15624079D01*
X10259825Y-15585984D02*
X10259825Y-15624079D01*
X10555063Y-15862174D02*
X10545539Y-15852650D01*
X10545539Y-15852650D02*
X10526491Y-15824079D01*
X10526491Y-15824079D02*
X10516968Y-15805031D01*
X10516968Y-15805031D02*
X10507444Y-15776460D01*
X10507444Y-15776460D02*
X10497920Y-15728841D01*
X10497920Y-15728841D02*
X10497920Y-15690746D01*
X10497920Y-15690746D02*
X10507444Y-15643127D01*
X10507444Y-15643127D02*
X10516968Y-15614555D01*
X10516968Y-15614555D02*
X10526491Y-15595508D01*
X10526491Y-15595508D02*
X10545539Y-15566936D01*
X10545539Y-15566936D02*
X10555063Y-15557412D01*
X10736015Y-15785984D02*
X10621730Y-15785984D01*
X10678872Y-15785984D02*
X10678872Y-15585984D01*
X10678872Y-15585984D02*
X10659825Y-15614555D01*
X10659825Y-15614555D02*
X10640777Y-15633603D01*
X10640777Y-15633603D02*
X10621730Y-15643127D01*
X10859825Y-15585984D02*
X10878872Y-15585984D01*
X10878872Y-15585984D02*
X10897920Y-15595508D01*
X10897920Y-15595508D02*
X10907444Y-15605031D01*
X10907444Y-15605031D02*
X10916968Y-15624079D01*
X10916968Y-15624079D02*
X10926491Y-15662174D01*
X10926491Y-15662174D02*
X10926491Y-15709793D01*
X10926491Y-15709793D02*
X10916968Y-15747888D01*
X10916968Y-15747888D02*
X10907444Y-15766936D01*
X10907444Y-15766936D02*
X10897920Y-15776460D01*
X10897920Y-15776460D02*
X10878872Y-15785984D01*
X10878872Y-15785984D02*
X10859825Y-15785984D01*
X10859825Y-15785984D02*
X10840777Y-15776460D01*
X10840777Y-15776460D02*
X10831253Y-15766936D01*
X10831253Y-15766936D02*
X10821730Y-15747888D01*
X10821730Y-15747888D02*
X10812206Y-15709793D01*
X10812206Y-15709793D02*
X10812206Y-15662174D01*
X10812206Y-15662174D02*
X10821730Y-15624079D01*
X10821730Y-15624079D02*
X10831253Y-15605031D01*
X10831253Y-15605031D02*
X10840777Y-15595508D01*
X10840777Y-15595508D02*
X10859825Y-15585984D01*
X11040777Y-15671698D02*
X11021730Y-15662174D01*
X11021730Y-15662174D02*
X11012206Y-15652650D01*
X11012206Y-15652650D02*
X11002682Y-15633603D01*
X11002682Y-15633603D02*
X11002682Y-15624079D01*
X11002682Y-15624079D02*
X11012206Y-15605031D01*
X11012206Y-15605031D02*
X11021730Y-15595508D01*
X11021730Y-15595508D02*
X11040777Y-15585984D01*
X11040777Y-15585984D02*
X11078872Y-15585984D01*
X11078872Y-15585984D02*
X11097920Y-15595508D01*
X11097920Y-15595508D02*
X11107444Y-15605031D01*
X11107444Y-15605031D02*
X11116968Y-15624079D01*
X11116968Y-15624079D02*
X11116968Y-15633603D01*
X11116968Y-15633603D02*
X11107444Y-15652650D01*
X11107444Y-15652650D02*
X11097920Y-15662174D01*
X11097920Y-15662174D02*
X11078872Y-15671698D01*
X11078872Y-15671698D02*
X11040777Y-15671698D01*
X11040777Y-15671698D02*
X11021730Y-15681222D01*
X11021730Y-15681222D02*
X11012206Y-15690746D01*
X11012206Y-15690746D02*
X11002682Y-15709793D01*
X11002682Y-15709793D02*
X11002682Y-15747888D01*
X11002682Y-15747888D02*
X11012206Y-15766936D01*
X11012206Y-15766936D02*
X11021730Y-15776460D01*
X11021730Y-15776460D02*
X11040777Y-15785984D01*
X11040777Y-15785984D02*
X11078872Y-15785984D01*
X11078872Y-15785984D02*
X11097920Y-15776460D01*
X11097920Y-15776460D02*
X11107444Y-15766936D01*
X11107444Y-15766936D02*
X11116968Y-15747888D01*
X11116968Y-15747888D02*
X11116968Y-15709793D01*
X11116968Y-15709793D02*
X11107444Y-15690746D01*
X11107444Y-15690746D02*
X11097920Y-15681222D01*
X11097920Y-15681222D02*
X11078872Y-15671698D01*
X11355063Y-15785984D02*
X11355063Y-15585984D01*
X11440777Y-15785984D02*
X11440777Y-15681222D01*
X11440777Y-15681222D02*
X11431253Y-15662174D01*
X11431253Y-15662174D02*
X11412206Y-15652650D01*
X11412206Y-15652650D02*
X11383634Y-15652650D01*
X11383634Y-15652650D02*
X11364587Y-15662174D01*
X11364587Y-15662174D02*
X11355063Y-15671698D01*
X11564587Y-15785984D02*
X11545539Y-15776460D01*
X11545539Y-15776460D02*
X11536015Y-15766936D01*
X11536015Y-15766936D02*
X11526491Y-15747888D01*
X11526491Y-15747888D02*
X11526491Y-15690746D01*
X11526491Y-15690746D02*
X11536015Y-15671698D01*
X11536015Y-15671698D02*
X11545539Y-15662174D01*
X11545539Y-15662174D02*
X11564587Y-15652650D01*
X11564587Y-15652650D02*
X11593158Y-15652650D01*
X11593158Y-15652650D02*
X11612206Y-15662174D01*
X11612206Y-15662174D02*
X11621730Y-15671698D01*
X11621730Y-15671698D02*
X11631253Y-15690746D01*
X11631253Y-15690746D02*
X11631253Y-15747888D01*
X11631253Y-15747888D02*
X11621730Y-15766936D01*
X11621730Y-15766936D02*
X11612206Y-15776460D01*
X11612206Y-15776460D02*
X11593158Y-15785984D01*
X11593158Y-15785984D02*
X11564587Y-15785984D01*
X11745539Y-15785984D02*
X11726491Y-15776460D01*
X11726491Y-15776460D02*
X11716968Y-15757412D01*
X11716968Y-15757412D02*
X11716968Y-15585984D01*
X11897920Y-15776460D02*
X11878872Y-15785984D01*
X11878872Y-15785984D02*
X11840777Y-15785984D01*
X11840777Y-15785984D02*
X11821730Y-15776460D01*
X11821730Y-15776460D02*
X11812206Y-15757412D01*
X11812206Y-15757412D02*
X11812206Y-15681222D01*
X11812206Y-15681222D02*
X11821730Y-15662174D01*
X11821730Y-15662174D02*
X11840777Y-15652650D01*
X11840777Y-15652650D02*
X11878872Y-15652650D01*
X11878872Y-15652650D02*
X11897920Y-15662174D01*
X11897920Y-15662174D02*
X11907444Y-15681222D01*
X11907444Y-15681222D02*
X11907444Y-15700269D01*
X11907444Y-15700269D02*
X11812206Y-15719317D01*
X11983634Y-15776460D02*
X12002682Y-15785984D01*
X12002682Y-15785984D02*
X12040777Y-15785984D01*
X12040777Y-15785984D02*
X12059825Y-15776460D01*
X12059825Y-15776460D02*
X12069349Y-15757412D01*
X12069349Y-15757412D02*
X12069349Y-15747888D01*
X12069349Y-15747888D02*
X12059825Y-15728841D01*
X12059825Y-15728841D02*
X12040777Y-15719317D01*
X12040777Y-15719317D02*
X12012206Y-15719317D01*
X12012206Y-15719317D02*
X11993158Y-15709793D01*
X11993158Y-15709793D02*
X11983634Y-15690746D01*
X11983634Y-15690746D02*
X11983634Y-15681222D01*
X11983634Y-15681222D02*
X11993158Y-15662174D01*
X11993158Y-15662174D02*
X12012206Y-15652650D01*
X12012206Y-15652650D02*
X12040777Y-15652650D01*
X12040777Y-15652650D02*
X12059825Y-15662174D01*
X12136015Y-15862174D02*
X12145539Y-15852650D01*
X12145539Y-15852650D02*
X12164587Y-15824079D01*
X12164587Y-15824079D02*
X12174111Y-15805031D01*
X12174111Y-15805031D02*
X12183634Y-15776460D01*
X12183634Y-15776460D02*
X12193158Y-15728841D01*
X12193158Y-15728841D02*
X12193158Y-15690746D01*
X12193158Y-15690746D02*
X12183634Y-15643127D01*
X12183634Y-15643127D02*
X12174111Y-15614555D01*
X12174111Y-15614555D02*
X12164587Y-15595508D01*
X12164587Y-15595508D02*
X12145539Y-15566936D01*
X12145539Y-15566936D02*
X12136015Y-15557412D01*
D13*
X6980000Y-15958500D02*
G75*
G03*
X6980000Y-15958500I-40000J0D01*
G01*
D11*
X7278872Y-15849984D02*
X7297920Y-15849984D01*
X7297920Y-15849984D02*
X7316967Y-15859508D01*
X7316967Y-15859508D02*
X7326491Y-15869031D01*
X7326491Y-15869031D02*
X7336015Y-15888079D01*
X7336015Y-15888079D02*
X7345539Y-15926174D01*
X7345539Y-15926174D02*
X7345539Y-15973793D01*
X7345539Y-15973793D02*
X7336015Y-16011888D01*
X7336015Y-16011888D02*
X7326491Y-16030936D01*
X7326491Y-16030936D02*
X7316967Y-16040460D01*
X7316967Y-16040460D02*
X7297920Y-16049984D01*
X7297920Y-16049984D02*
X7278872Y-16049984D01*
X7278872Y-16049984D02*
X7259824Y-16040460D01*
X7259824Y-16040460D02*
X7250301Y-16030936D01*
X7250301Y-16030936D02*
X7240777Y-16011888D01*
X7240777Y-16011888D02*
X7231253Y-15973793D01*
X7231253Y-15973793D02*
X7231253Y-15926174D01*
X7231253Y-15926174D02*
X7240777Y-15888079D01*
X7240777Y-15888079D02*
X7250301Y-15869031D01*
X7250301Y-15869031D02*
X7259824Y-15859508D01*
X7259824Y-15859508D02*
X7278872Y-15849984D01*
X7431253Y-16030936D02*
X7440777Y-16040460D01*
X7440777Y-16040460D02*
X7431253Y-16049984D01*
X7431253Y-16049984D02*
X7421729Y-16040460D01*
X7421729Y-16040460D02*
X7431253Y-16030936D01*
X7431253Y-16030936D02*
X7431253Y-16049984D01*
X7555062Y-15935698D02*
X7536015Y-15926174D01*
X7536015Y-15926174D02*
X7526491Y-15916650D01*
X7526491Y-15916650D02*
X7516967Y-15897603D01*
X7516967Y-15897603D02*
X7516967Y-15888079D01*
X7516967Y-15888079D02*
X7526491Y-15869031D01*
X7526491Y-15869031D02*
X7536015Y-15859508D01*
X7536015Y-15859508D02*
X7555062Y-15849984D01*
X7555062Y-15849984D02*
X7593158Y-15849984D01*
X7593158Y-15849984D02*
X7612205Y-15859508D01*
X7612205Y-15859508D02*
X7621729Y-15869031D01*
X7621729Y-15869031D02*
X7631253Y-15888079D01*
X7631253Y-15888079D02*
X7631253Y-15897603D01*
X7631253Y-15897603D02*
X7621729Y-15916650D01*
X7621729Y-15916650D02*
X7612205Y-15926174D01*
X7612205Y-15926174D02*
X7593158Y-15935698D01*
X7593158Y-15935698D02*
X7555062Y-15935698D01*
X7555062Y-15935698D02*
X7536015Y-15945222D01*
X7536015Y-15945222D02*
X7526491Y-15954746D01*
X7526491Y-15954746D02*
X7516967Y-15973793D01*
X7516967Y-15973793D02*
X7516967Y-16011888D01*
X7516967Y-16011888D02*
X7526491Y-16030936D01*
X7526491Y-16030936D02*
X7536015Y-16040460D01*
X7536015Y-16040460D02*
X7555062Y-16049984D01*
X7555062Y-16049984D02*
X7593158Y-16049984D01*
X7593158Y-16049984D02*
X7612205Y-16040460D01*
X7612205Y-16040460D02*
X7621729Y-16030936D01*
X7621729Y-16030936D02*
X7631253Y-16011888D01*
X7631253Y-16011888D02*
X7631253Y-15973793D01*
X7631253Y-15973793D02*
X7621729Y-15954746D01*
X7621729Y-15954746D02*
X7612205Y-15945222D01*
X7612205Y-15945222D02*
X7593158Y-15935698D01*
X7755062Y-15849984D02*
X7774110Y-15849984D01*
X7774110Y-15849984D02*
X7793158Y-15859508D01*
X7793158Y-15859508D02*
X7802682Y-15869031D01*
X7802682Y-15869031D02*
X7812205Y-15888079D01*
X7812205Y-15888079D02*
X7821729Y-15926174D01*
X7821729Y-15926174D02*
X7821729Y-15973793D01*
X7821729Y-15973793D02*
X7812205Y-16011888D01*
X7812205Y-16011888D02*
X7802682Y-16030936D01*
X7802682Y-16030936D02*
X7793158Y-16040460D01*
X7793158Y-16040460D02*
X7774110Y-16049984D01*
X7774110Y-16049984D02*
X7755062Y-16049984D01*
X7755062Y-16049984D02*
X7736015Y-16040460D01*
X7736015Y-16040460D02*
X7726491Y-16030936D01*
X7726491Y-16030936D02*
X7716967Y-16011888D01*
X7716967Y-16011888D02*
X7707443Y-15973793D01*
X7707443Y-15973793D02*
X7707443Y-15926174D01*
X7707443Y-15926174D02*
X7716967Y-15888079D01*
X7716967Y-15888079D02*
X7726491Y-15869031D01*
X7726491Y-15869031D02*
X7736015Y-15859508D01*
X7736015Y-15859508D02*
X7755062Y-15849984D01*
X7945539Y-15849984D02*
X7964586Y-15849984D01*
X7964586Y-15849984D02*
X7983634Y-15859508D01*
X7983634Y-15859508D02*
X7993158Y-15869031D01*
X7993158Y-15869031D02*
X8002682Y-15888079D01*
X8002682Y-15888079D02*
X8012205Y-15926174D01*
X8012205Y-15926174D02*
X8012205Y-15973793D01*
X8012205Y-15973793D02*
X8002682Y-16011888D01*
X8002682Y-16011888D02*
X7993158Y-16030936D01*
X7993158Y-16030936D02*
X7983634Y-16040460D01*
X7983634Y-16040460D02*
X7964586Y-16049984D01*
X7964586Y-16049984D02*
X7945539Y-16049984D01*
X7945539Y-16049984D02*
X7926491Y-16040460D01*
X7926491Y-16040460D02*
X7916967Y-16030936D01*
X7916967Y-16030936D02*
X7907443Y-16011888D01*
X7907443Y-16011888D02*
X7897920Y-15973793D01*
X7897920Y-15973793D02*
X7897920Y-15926174D01*
X7897920Y-15926174D02*
X7907443Y-15888079D01*
X7907443Y-15888079D02*
X7916967Y-15869031D01*
X7916967Y-15869031D02*
X7926491Y-15859508D01*
X7926491Y-15859508D02*
X7945539Y-15849984D01*
X8097920Y-16049984D02*
X8097920Y-15916650D01*
X8097920Y-15935698D02*
X8107443Y-15926174D01*
X8107443Y-15926174D02*
X8126491Y-15916650D01*
X8126491Y-15916650D02*
X8155063Y-15916650D01*
X8155063Y-15916650D02*
X8174110Y-15926174D01*
X8174110Y-15926174D02*
X8183634Y-15945222D01*
X8183634Y-15945222D02*
X8183634Y-16049984D01*
X8183634Y-15945222D02*
X8193158Y-15926174D01*
X8193158Y-15926174D02*
X8212205Y-15916650D01*
X8212205Y-15916650D02*
X8240777Y-15916650D01*
X8240777Y-15916650D02*
X8259824Y-15926174D01*
X8259824Y-15926174D02*
X8269348Y-15945222D01*
X8269348Y-15945222D02*
X8269348Y-16049984D01*
X8364586Y-16049984D02*
X8364586Y-15916650D01*
X8364586Y-15935698D02*
X8374110Y-15926174D01*
X8374110Y-15926174D02*
X8393158Y-15916650D01*
X8393158Y-15916650D02*
X8421729Y-15916650D01*
X8421729Y-15916650D02*
X8440777Y-15926174D01*
X8440777Y-15926174D02*
X8450301Y-15945222D01*
X8450301Y-15945222D02*
X8450301Y-16049984D01*
X8450301Y-15945222D02*
X8459825Y-15926174D01*
X8459825Y-15926174D02*
X8478872Y-15916650D01*
X8478872Y-15916650D02*
X8507444Y-15916650D01*
X8507444Y-15916650D02*
X8526491Y-15926174D01*
X8526491Y-15926174D02*
X8536015Y-15945222D01*
X8536015Y-15945222D02*
X8536015Y-16049984D01*
X8926491Y-15840460D02*
X8755063Y-16097603D01*
X9183634Y-15849984D02*
X9202682Y-15849984D01*
X9202682Y-15849984D02*
X9221729Y-15859508D01*
X9221729Y-15859508D02*
X9231253Y-15869031D01*
X9231253Y-15869031D02*
X9240777Y-15888079D01*
X9240777Y-15888079D02*
X9250301Y-15926174D01*
X9250301Y-15926174D02*
X9250301Y-15973793D01*
X9250301Y-15973793D02*
X9240777Y-16011888D01*
X9240777Y-16011888D02*
X9231253Y-16030936D01*
X9231253Y-16030936D02*
X9221729Y-16040460D01*
X9221729Y-16040460D02*
X9202682Y-16049984D01*
X9202682Y-16049984D02*
X9183634Y-16049984D01*
X9183634Y-16049984D02*
X9164587Y-16040460D01*
X9164587Y-16040460D02*
X9155063Y-16030936D01*
X9155063Y-16030936D02*
X9145539Y-16011888D01*
X9145539Y-16011888D02*
X9136015Y-15973793D01*
X9136015Y-15973793D02*
X9136015Y-15926174D01*
X9136015Y-15926174D02*
X9145539Y-15888079D01*
X9145539Y-15888079D02*
X9155063Y-15869031D01*
X9155063Y-15869031D02*
X9164587Y-15859508D01*
X9164587Y-15859508D02*
X9183634Y-15849984D01*
X9336015Y-16030936D02*
X9345539Y-16040460D01*
X9345539Y-16040460D02*
X9336015Y-16049984D01*
X9336015Y-16049984D02*
X9326491Y-16040460D01*
X9326491Y-16040460D02*
X9336015Y-16030936D01*
X9336015Y-16030936D02*
X9336015Y-16049984D01*
X9469348Y-15849984D02*
X9488396Y-15849984D01*
X9488396Y-15849984D02*
X9507444Y-15859508D01*
X9507444Y-15859508D02*
X9516968Y-15869031D01*
X9516968Y-15869031D02*
X9526491Y-15888079D01*
X9526491Y-15888079D02*
X9536015Y-15926174D01*
X9536015Y-15926174D02*
X9536015Y-15973793D01*
X9536015Y-15973793D02*
X9526491Y-16011888D01*
X9526491Y-16011888D02*
X9516968Y-16030936D01*
X9516968Y-16030936D02*
X9507444Y-16040460D01*
X9507444Y-16040460D02*
X9488396Y-16049984D01*
X9488396Y-16049984D02*
X9469348Y-16049984D01*
X9469348Y-16049984D02*
X9450301Y-16040460D01*
X9450301Y-16040460D02*
X9440777Y-16030936D01*
X9440777Y-16030936D02*
X9431253Y-16011888D01*
X9431253Y-16011888D02*
X9421729Y-15973793D01*
X9421729Y-15973793D02*
X9421729Y-15926174D01*
X9421729Y-15926174D02*
X9431253Y-15888079D01*
X9431253Y-15888079D02*
X9440777Y-15869031D01*
X9440777Y-15869031D02*
X9450301Y-15859508D01*
X9450301Y-15859508D02*
X9469348Y-15849984D01*
X9602682Y-15849984D02*
X9726491Y-15849984D01*
X9726491Y-15849984D02*
X9659825Y-15926174D01*
X9659825Y-15926174D02*
X9688396Y-15926174D01*
X9688396Y-15926174D02*
X9707444Y-15935698D01*
X9707444Y-15935698D02*
X9716968Y-15945222D01*
X9716968Y-15945222D02*
X9726491Y-15964269D01*
X9726491Y-15964269D02*
X9726491Y-16011888D01*
X9726491Y-16011888D02*
X9716968Y-16030936D01*
X9716968Y-16030936D02*
X9707444Y-16040460D01*
X9707444Y-16040460D02*
X9688396Y-16049984D01*
X9688396Y-16049984D02*
X9631253Y-16049984D01*
X9631253Y-16049984D02*
X9612206Y-16040460D01*
X9612206Y-16040460D02*
X9602682Y-16030936D01*
X9916968Y-16049984D02*
X9802682Y-16049984D01*
X9859825Y-16049984D02*
X9859825Y-15849984D01*
X9859825Y-15849984D02*
X9840777Y-15878555D01*
X9840777Y-15878555D02*
X9821729Y-15897603D01*
X9821729Y-15897603D02*
X9802682Y-15907127D01*
X10097920Y-15849984D02*
X10002682Y-15849984D01*
X10002682Y-15849984D02*
X9993158Y-15945222D01*
X9993158Y-15945222D02*
X10002682Y-15935698D01*
X10002682Y-15935698D02*
X10021729Y-15926174D01*
X10021729Y-15926174D02*
X10069349Y-15926174D01*
X10069349Y-15926174D02*
X10088396Y-15935698D01*
X10088396Y-15935698D02*
X10097920Y-15945222D01*
X10097920Y-15945222D02*
X10107444Y-15964269D01*
X10107444Y-15964269D02*
X10107444Y-16011888D01*
X10107444Y-16011888D02*
X10097920Y-16030936D01*
X10097920Y-16030936D02*
X10088396Y-16040460D01*
X10088396Y-16040460D02*
X10069349Y-16049984D01*
X10069349Y-16049984D02*
X10021729Y-16049984D01*
X10021729Y-16049984D02*
X10002682Y-16040460D01*
X10002682Y-16040460D02*
X9993158Y-16030936D01*
X10183634Y-15849984D02*
X10183634Y-15888079D01*
X10259825Y-15849984D02*
X10259825Y-15888079D01*
X10555063Y-16126174D02*
X10545539Y-16116650D01*
X10545539Y-16116650D02*
X10526491Y-16088079D01*
X10526491Y-16088079D02*
X10516968Y-16069031D01*
X10516968Y-16069031D02*
X10507444Y-16040460D01*
X10507444Y-16040460D02*
X10497920Y-15992841D01*
X10497920Y-15992841D02*
X10497920Y-15954746D01*
X10497920Y-15954746D02*
X10507444Y-15907127D01*
X10507444Y-15907127D02*
X10516968Y-15878555D01*
X10516968Y-15878555D02*
X10526491Y-15859508D01*
X10526491Y-15859508D02*
X10545539Y-15830936D01*
X10545539Y-15830936D02*
X10555063Y-15821412D01*
X10716968Y-15916650D02*
X10716968Y-16049984D01*
X10669349Y-15840460D02*
X10621730Y-15983317D01*
X10621730Y-15983317D02*
X10745539Y-15983317D01*
X10850301Y-15935698D02*
X10831253Y-15926174D01*
X10831253Y-15926174D02*
X10821730Y-15916650D01*
X10821730Y-15916650D02*
X10812206Y-15897603D01*
X10812206Y-15897603D02*
X10812206Y-15888079D01*
X10812206Y-15888079D02*
X10821730Y-15869031D01*
X10821730Y-15869031D02*
X10831253Y-15859508D01*
X10831253Y-15859508D02*
X10850301Y-15849984D01*
X10850301Y-15849984D02*
X10888396Y-15849984D01*
X10888396Y-15849984D02*
X10907444Y-15859508D01*
X10907444Y-15859508D02*
X10916968Y-15869031D01*
X10916968Y-15869031D02*
X10926491Y-15888079D01*
X10926491Y-15888079D02*
X10926491Y-15897603D01*
X10926491Y-15897603D02*
X10916968Y-15916650D01*
X10916968Y-15916650D02*
X10907444Y-15926174D01*
X10907444Y-15926174D02*
X10888396Y-15935698D01*
X10888396Y-15935698D02*
X10850301Y-15935698D01*
X10850301Y-15935698D02*
X10831253Y-15945222D01*
X10831253Y-15945222D02*
X10821730Y-15954746D01*
X10821730Y-15954746D02*
X10812206Y-15973793D01*
X10812206Y-15973793D02*
X10812206Y-16011888D01*
X10812206Y-16011888D02*
X10821730Y-16030936D01*
X10821730Y-16030936D02*
X10831253Y-16040460D01*
X10831253Y-16040460D02*
X10850301Y-16049984D01*
X10850301Y-16049984D02*
X10888396Y-16049984D01*
X10888396Y-16049984D02*
X10907444Y-16040460D01*
X10907444Y-16040460D02*
X10916968Y-16030936D01*
X10916968Y-16030936D02*
X10926491Y-16011888D01*
X10926491Y-16011888D02*
X10926491Y-15973793D01*
X10926491Y-15973793D02*
X10916968Y-15954746D01*
X10916968Y-15954746D02*
X10907444Y-15945222D01*
X10907444Y-15945222D02*
X10888396Y-15935698D01*
X11002682Y-15869031D02*
X11012206Y-15859508D01*
X11012206Y-15859508D02*
X11031253Y-15849984D01*
X11031253Y-15849984D02*
X11078872Y-15849984D01*
X11078872Y-15849984D02*
X11097920Y-15859508D01*
X11097920Y-15859508D02*
X11107444Y-15869031D01*
X11107444Y-15869031D02*
X11116968Y-15888079D01*
X11116968Y-15888079D02*
X11116968Y-15907127D01*
X11116968Y-15907127D02*
X11107444Y-15935698D01*
X11107444Y-15935698D02*
X10993158Y-16049984D01*
X10993158Y-16049984D02*
X11116968Y-16049984D01*
X11355063Y-16049984D02*
X11355063Y-15849984D01*
X11440777Y-16049984D02*
X11440777Y-15945222D01*
X11440777Y-15945222D02*
X11431253Y-15926174D01*
X11431253Y-15926174D02*
X11412206Y-15916650D01*
X11412206Y-15916650D02*
X11383634Y-15916650D01*
X11383634Y-15916650D02*
X11364587Y-15926174D01*
X11364587Y-15926174D02*
X11355063Y-15935698D01*
X11564587Y-16049984D02*
X11545539Y-16040460D01*
X11545539Y-16040460D02*
X11536015Y-16030936D01*
X11536015Y-16030936D02*
X11526491Y-16011888D01*
X11526491Y-16011888D02*
X11526491Y-15954746D01*
X11526491Y-15954746D02*
X11536015Y-15935698D01*
X11536015Y-15935698D02*
X11545539Y-15926174D01*
X11545539Y-15926174D02*
X11564587Y-15916650D01*
X11564587Y-15916650D02*
X11593158Y-15916650D01*
X11593158Y-15916650D02*
X11612206Y-15926174D01*
X11612206Y-15926174D02*
X11621730Y-15935698D01*
X11621730Y-15935698D02*
X11631253Y-15954746D01*
X11631253Y-15954746D02*
X11631253Y-16011888D01*
X11631253Y-16011888D02*
X11621730Y-16030936D01*
X11621730Y-16030936D02*
X11612206Y-16040460D01*
X11612206Y-16040460D02*
X11593158Y-16049984D01*
X11593158Y-16049984D02*
X11564587Y-16049984D01*
X11745539Y-16049984D02*
X11726491Y-16040460D01*
X11726491Y-16040460D02*
X11716968Y-16021412D01*
X11716968Y-16021412D02*
X11716968Y-15849984D01*
X11897920Y-16040460D02*
X11878872Y-16049984D01*
X11878872Y-16049984D02*
X11840777Y-16049984D01*
X11840777Y-16049984D02*
X11821730Y-16040460D01*
X11821730Y-16040460D02*
X11812206Y-16021412D01*
X11812206Y-16021412D02*
X11812206Y-15945222D01*
X11812206Y-15945222D02*
X11821730Y-15926174D01*
X11821730Y-15926174D02*
X11840777Y-15916650D01*
X11840777Y-15916650D02*
X11878872Y-15916650D01*
X11878872Y-15916650D02*
X11897920Y-15926174D01*
X11897920Y-15926174D02*
X11907444Y-15945222D01*
X11907444Y-15945222D02*
X11907444Y-15964269D01*
X11907444Y-15964269D02*
X11812206Y-15983317D01*
X11983634Y-16040460D02*
X12002682Y-16049984D01*
X12002682Y-16049984D02*
X12040777Y-16049984D01*
X12040777Y-16049984D02*
X12059825Y-16040460D01*
X12059825Y-16040460D02*
X12069349Y-16021412D01*
X12069349Y-16021412D02*
X12069349Y-16011888D01*
X12069349Y-16011888D02*
X12059825Y-15992841D01*
X12059825Y-15992841D02*
X12040777Y-15983317D01*
X12040777Y-15983317D02*
X12012206Y-15983317D01*
X12012206Y-15983317D02*
X11993158Y-15973793D01*
X11993158Y-15973793D02*
X11983634Y-15954746D01*
X11983634Y-15954746D02*
X11983634Y-15945222D01*
X11983634Y-15945222D02*
X11993158Y-15926174D01*
X11993158Y-15926174D02*
X12012206Y-15916650D01*
X12012206Y-15916650D02*
X12040777Y-15916650D01*
X12040777Y-15916650D02*
X12059825Y-15926174D01*
X12136015Y-16126174D02*
X12145539Y-16116650D01*
X12145539Y-16116650D02*
X12164587Y-16088079D01*
X12164587Y-16088079D02*
X12174111Y-16069031D01*
X12174111Y-16069031D02*
X12183634Y-16040460D01*
X12183634Y-16040460D02*
X12193158Y-15992841D01*
X12193158Y-15992841D02*
X12193158Y-15954746D01*
X12193158Y-15954746D02*
X12183634Y-15907127D01*
X12183634Y-15907127D02*
X12174111Y-15878555D01*
X12174111Y-15878555D02*
X12164587Y-15859508D01*
X12164587Y-15859508D02*
X12145539Y-15830936D01*
X12145539Y-15830936D02*
X12136015Y-15821412D01*
D10*
X6930000Y-16172500D02*
X6930000Y-16272500D01*
X6880000Y-16222500D02*
X6980000Y-16222500D01*
D11*
X7345539Y-16313984D02*
X7231253Y-16313984D01*
X7288396Y-16313984D02*
X7288396Y-16113984D01*
X7288396Y-16113984D02*
X7269348Y-16142555D01*
X7269348Y-16142555D02*
X7250301Y-16161603D01*
X7250301Y-16161603D02*
X7231253Y-16171127D01*
X7431253Y-16294936D02*
X7440777Y-16304460D01*
X7440777Y-16304460D02*
X7431253Y-16313984D01*
X7431253Y-16313984D02*
X7421729Y-16304460D01*
X7421729Y-16304460D02*
X7431253Y-16294936D01*
X7431253Y-16294936D02*
X7431253Y-16313984D01*
X7564586Y-16113984D02*
X7583634Y-16113984D01*
X7583634Y-16113984D02*
X7602682Y-16123508D01*
X7602682Y-16123508D02*
X7612205Y-16133031D01*
X7612205Y-16133031D02*
X7621729Y-16152079D01*
X7621729Y-16152079D02*
X7631253Y-16190174D01*
X7631253Y-16190174D02*
X7631253Y-16237793D01*
X7631253Y-16237793D02*
X7621729Y-16275888D01*
X7621729Y-16275888D02*
X7612205Y-16294936D01*
X7612205Y-16294936D02*
X7602682Y-16304460D01*
X7602682Y-16304460D02*
X7583634Y-16313984D01*
X7583634Y-16313984D02*
X7564586Y-16313984D01*
X7564586Y-16313984D02*
X7545539Y-16304460D01*
X7545539Y-16304460D02*
X7536015Y-16294936D01*
X7536015Y-16294936D02*
X7526491Y-16275888D01*
X7526491Y-16275888D02*
X7516967Y-16237793D01*
X7516967Y-16237793D02*
X7516967Y-16190174D01*
X7516967Y-16190174D02*
X7526491Y-16152079D01*
X7526491Y-16152079D02*
X7536015Y-16133031D01*
X7536015Y-16133031D02*
X7545539Y-16123508D01*
X7545539Y-16123508D02*
X7564586Y-16113984D01*
X7755062Y-16113984D02*
X7774110Y-16113984D01*
X7774110Y-16113984D02*
X7793158Y-16123508D01*
X7793158Y-16123508D02*
X7802682Y-16133031D01*
X7802682Y-16133031D02*
X7812205Y-16152079D01*
X7812205Y-16152079D02*
X7821729Y-16190174D01*
X7821729Y-16190174D02*
X7821729Y-16237793D01*
X7821729Y-16237793D02*
X7812205Y-16275888D01*
X7812205Y-16275888D02*
X7802682Y-16294936D01*
X7802682Y-16294936D02*
X7793158Y-16304460D01*
X7793158Y-16304460D02*
X7774110Y-16313984D01*
X7774110Y-16313984D02*
X7755062Y-16313984D01*
X7755062Y-16313984D02*
X7736015Y-16304460D01*
X7736015Y-16304460D02*
X7726491Y-16294936D01*
X7726491Y-16294936D02*
X7716967Y-16275888D01*
X7716967Y-16275888D02*
X7707443Y-16237793D01*
X7707443Y-16237793D02*
X7707443Y-16190174D01*
X7707443Y-16190174D02*
X7716967Y-16152079D01*
X7716967Y-16152079D02*
X7726491Y-16133031D01*
X7726491Y-16133031D02*
X7736015Y-16123508D01*
X7736015Y-16123508D02*
X7755062Y-16113984D01*
X7945539Y-16113984D02*
X7964586Y-16113984D01*
X7964586Y-16113984D02*
X7983634Y-16123508D01*
X7983634Y-16123508D02*
X7993158Y-16133031D01*
X7993158Y-16133031D02*
X8002682Y-16152079D01*
X8002682Y-16152079D02*
X8012205Y-16190174D01*
X8012205Y-16190174D02*
X8012205Y-16237793D01*
X8012205Y-16237793D02*
X8002682Y-16275888D01*
X8002682Y-16275888D02*
X7993158Y-16294936D01*
X7993158Y-16294936D02*
X7983634Y-16304460D01*
X7983634Y-16304460D02*
X7964586Y-16313984D01*
X7964586Y-16313984D02*
X7945539Y-16313984D01*
X7945539Y-16313984D02*
X7926491Y-16304460D01*
X7926491Y-16304460D02*
X7916967Y-16294936D01*
X7916967Y-16294936D02*
X7907443Y-16275888D01*
X7907443Y-16275888D02*
X7897920Y-16237793D01*
X7897920Y-16237793D02*
X7897920Y-16190174D01*
X7897920Y-16190174D02*
X7907443Y-16152079D01*
X7907443Y-16152079D02*
X7916967Y-16133031D01*
X7916967Y-16133031D02*
X7926491Y-16123508D01*
X7926491Y-16123508D02*
X7945539Y-16113984D01*
X8097920Y-16313984D02*
X8097920Y-16180650D01*
X8097920Y-16199698D02*
X8107443Y-16190174D01*
X8107443Y-16190174D02*
X8126491Y-16180650D01*
X8126491Y-16180650D02*
X8155063Y-16180650D01*
X8155063Y-16180650D02*
X8174110Y-16190174D01*
X8174110Y-16190174D02*
X8183634Y-16209222D01*
X8183634Y-16209222D02*
X8183634Y-16313984D01*
X8183634Y-16209222D02*
X8193158Y-16190174D01*
X8193158Y-16190174D02*
X8212205Y-16180650D01*
X8212205Y-16180650D02*
X8240777Y-16180650D01*
X8240777Y-16180650D02*
X8259824Y-16190174D01*
X8259824Y-16190174D02*
X8269348Y-16209222D01*
X8269348Y-16209222D02*
X8269348Y-16313984D01*
X8364586Y-16313984D02*
X8364586Y-16180650D01*
X8364586Y-16199698D02*
X8374110Y-16190174D01*
X8374110Y-16190174D02*
X8393158Y-16180650D01*
X8393158Y-16180650D02*
X8421729Y-16180650D01*
X8421729Y-16180650D02*
X8440777Y-16190174D01*
X8440777Y-16190174D02*
X8450301Y-16209222D01*
X8450301Y-16209222D02*
X8450301Y-16313984D01*
X8450301Y-16209222D02*
X8459825Y-16190174D01*
X8459825Y-16190174D02*
X8478872Y-16180650D01*
X8478872Y-16180650D02*
X8507444Y-16180650D01*
X8507444Y-16180650D02*
X8526491Y-16190174D01*
X8526491Y-16190174D02*
X8536015Y-16209222D01*
X8536015Y-16209222D02*
X8536015Y-16313984D01*
X8926491Y-16104460D02*
X8755063Y-16361603D01*
X9183634Y-16113984D02*
X9202682Y-16113984D01*
X9202682Y-16113984D02*
X9221729Y-16123508D01*
X9221729Y-16123508D02*
X9231253Y-16133031D01*
X9231253Y-16133031D02*
X9240777Y-16152079D01*
X9240777Y-16152079D02*
X9250301Y-16190174D01*
X9250301Y-16190174D02*
X9250301Y-16237793D01*
X9250301Y-16237793D02*
X9240777Y-16275888D01*
X9240777Y-16275888D02*
X9231253Y-16294936D01*
X9231253Y-16294936D02*
X9221729Y-16304460D01*
X9221729Y-16304460D02*
X9202682Y-16313984D01*
X9202682Y-16313984D02*
X9183634Y-16313984D01*
X9183634Y-16313984D02*
X9164587Y-16304460D01*
X9164587Y-16304460D02*
X9155063Y-16294936D01*
X9155063Y-16294936D02*
X9145539Y-16275888D01*
X9145539Y-16275888D02*
X9136015Y-16237793D01*
X9136015Y-16237793D02*
X9136015Y-16190174D01*
X9136015Y-16190174D02*
X9145539Y-16152079D01*
X9145539Y-16152079D02*
X9155063Y-16133031D01*
X9155063Y-16133031D02*
X9164587Y-16123508D01*
X9164587Y-16123508D02*
X9183634Y-16113984D01*
X9336015Y-16294936D02*
X9345539Y-16304460D01*
X9345539Y-16304460D02*
X9336015Y-16313984D01*
X9336015Y-16313984D02*
X9326491Y-16304460D01*
X9326491Y-16304460D02*
X9336015Y-16294936D01*
X9336015Y-16294936D02*
X9336015Y-16313984D01*
X9469348Y-16113984D02*
X9488396Y-16113984D01*
X9488396Y-16113984D02*
X9507444Y-16123508D01*
X9507444Y-16123508D02*
X9516968Y-16133031D01*
X9516968Y-16133031D02*
X9526491Y-16152079D01*
X9526491Y-16152079D02*
X9536015Y-16190174D01*
X9536015Y-16190174D02*
X9536015Y-16237793D01*
X9536015Y-16237793D02*
X9526491Y-16275888D01*
X9526491Y-16275888D02*
X9516968Y-16294936D01*
X9516968Y-16294936D02*
X9507444Y-16304460D01*
X9507444Y-16304460D02*
X9488396Y-16313984D01*
X9488396Y-16313984D02*
X9469348Y-16313984D01*
X9469348Y-16313984D02*
X9450301Y-16304460D01*
X9450301Y-16304460D02*
X9440777Y-16294936D01*
X9440777Y-16294936D02*
X9431253Y-16275888D01*
X9431253Y-16275888D02*
X9421729Y-16237793D01*
X9421729Y-16237793D02*
X9421729Y-16190174D01*
X9421729Y-16190174D02*
X9431253Y-16152079D01*
X9431253Y-16152079D02*
X9440777Y-16133031D01*
X9440777Y-16133031D02*
X9450301Y-16123508D01*
X9450301Y-16123508D02*
X9469348Y-16113984D01*
X9602682Y-16113984D02*
X9726491Y-16113984D01*
X9726491Y-16113984D02*
X9659825Y-16190174D01*
X9659825Y-16190174D02*
X9688396Y-16190174D01*
X9688396Y-16190174D02*
X9707444Y-16199698D01*
X9707444Y-16199698D02*
X9716968Y-16209222D01*
X9716968Y-16209222D02*
X9726491Y-16228269D01*
X9726491Y-16228269D02*
X9726491Y-16275888D01*
X9726491Y-16275888D02*
X9716968Y-16294936D01*
X9716968Y-16294936D02*
X9707444Y-16304460D01*
X9707444Y-16304460D02*
X9688396Y-16313984D01*
X9688396Y-16313984D02*
X9631253Y-16313984D01*
X9631253Y-16313984D02*
X9612206Y-16304460D01*
X9612206Y-16304460D02*
X9602682Y-16294936D01*
X9821729Y-16313984D02*
X9859825Y-16313984D01*
X9859825Y-16313984D02*
X9878872Y-16304460D01*
X9878872Y-16304460D02*
X9888396Y-16294936D01*
X9888396Y-16294936D02*
X9907444Y-16266365D01*
X9907444Y-16266365D02*
X9916968Y-16228269D01*
X9916968Y-16228269D02*
X9916968Y-16152079D01*
X9916968Y-16152079D02*
X9907444Y-16133031D01*
X9907444Y-16133031D02*
X9897920Y-16123508D01*
X9897920Y-16123508D02*
X9878872Y-16113984D01*
X9878872Y-16113984D02*
X9840777Y-16113984D01*
X9840777Y-16113984D02*
X9821729Y-16123508D01*
X9821729Y-16123508D02*
X9812206Y-16133031D01*
X9812206Y-16133031D02*
X9802682Y-16152079D01*
X9802682Y-16152079D02*
X9802682Y-16199698D01*
X9802682Y-16199698D02*
X9812206Y-16218746D01*
X9812206Y-16218746D02*
X9821729Y-16228269D01*
X9821729Y-16228269D02*
X9840777Y-16237793D01*
X9840777Y-16237793D02*
X9878872Y-16237793D01*
X9878872Y-16237793D02*
X9897920Y-16228269D01*
X9897920Y-16228269D02*
X9907444Y-16218746D01*
X9907444Y-16218746D02*
X9916968Y-16199698D01*
X10088396Y-16180650D02*
X10088396Y-16313984D01*
X10040777Y-16104460D02*
X9993158Y-16247317D01*
X9993158Y-16247317D02*
X10116968Y-16247317D01*
X10183634Y-16113984D02*
X10183634Y-16152079D01*
X10259825Y-16113984D02*
X10259825Y-16152079D01*
X10555063Y-16390174D02*
X10545539Y-16380650D01*
X10545539Y-16380650D02*
X10526491Y-16352079D01*
X10526491Y-16352079D02*
X10516968Y-16333031D01*
X10516968Y-16333031D02*
X10507444Y-16304460D01*
X10507444Y-16304460D02*
X10497920Y-16256841D01*
X10497920Y-16256841D02*
X10497920Y-16218746D01*
X10497920Y-16218746D02*
X10507444Y-16171127D01*
X10507444Y-16171127D02*
X10516968Y-16142555D01*
X10516968Y-16142555D02*
X10526491Y-16123508D01*
X10526491Y-16123508D02*
X10545539Y-16094936D01*
X10545539Y-16094936D02*
X10555063Y-16085412D01*
X10716968Y-16180650D02*
X10716968Y-16313984D01*
X10669349Y-16104460D02*
X10621730Y-16247317D01*
X10621730Y-16247317D02*
X10745539Y-16247317D01*
X10907444Y-16113984D02*
X10869349Y-16113984D01*
X10869349Y-16113984D02*
X10850301Y-16123508D01*
X10850301Y-16123508D02*
X10840777Y-16133031D01*
X10840777Y-16133031D02*
X10821730Y-16161603D01*
X10821730Y-16161603D02*
X10812206Y-16199698D01*
X10812206Y-16199698D02*
X10812206Y-16275888D01*
X10812206Y-16275888D02*
X10821730Y-16294936D01*
X10821730Y-16294936D02*
X10831253Y-16304460D01*
X10831253Y-16304460D02*
X10850301Y-16313984D01*
X10850301Y-16313984D02*
X10888396Y-16313984D01*
X10888396Y-16313984D02*
X10907444Y-16304460D01*
X10907444Y-16304460D02*
X10916968Y-16294936D01*
X10916968Y-16294936D02*
X10926491Y-16275888D01*
X10926491Y-16275888D02*
X10926491Y-16228269D01*
X10926491Y-16228269D02*
X10916968Y-16209222D01*
X10916968Y-16209222D02*
X10907444Y-16199698D01*
X10907444Y-16199698D02*
X10888396Y-16190174D01*
X10888396Y-16190174D02*
X10850301Y-16190174D01*
X10850301Y-16190174D02*
X10831253Y-16199698D01*
X10831253Y-16199698D02*
X10821730Y-16209222D01*
X10821730Y-16209222D02*
X10812206Y-16228269D01*
X11164587Y-16313984D02*
X11164587Y-16113984D01*
X11250301Y-16313984D02*
X11250301Y-16209222D01*
X11250301Y-16209222D02*
X11240777Y-16190174D01*
X11240777Y-16190174D02*
X11221730Y-16180650D01*
X11221730Y-16180650D02*
X11193158Y-16180650D01*
X11193158Y-16180650D02*
X11174111Y-16190174D01*
X11174111Y-16190174D02*
X11164587Y-16199698D01*
X11374110Y-16313984D02*
X11355063Y-16304460D01*
X11355063Y-16304460D02*
X11345539Y-16294936D01*
X11345539Y-16294936D02*
X11336015Y-16275888D01*
X11336015Y-16275888D02*
X11336015Y-16218746D01*
X11336015Y-16218746D02*
X11345539Y-16199698D01*
X11345539Y-16199698D02*
X11355063Y-16190174D01*
X11355063Y-16190174D02*
X11374110Y-16180650D01*
X11374110Y-16180650D02*
X11402682Y-16180650D01*
X11402682Y-16180650D02*
X11421730Y-16190174D01*
X11421730Y-16190174D02*
X11431253Y-16199698D01*
X11431253Y-16199698D02*
X11440777Y-16218746D01*
X11440777Y-16218746D02*
X11440777Y-16275888D01*
X11440777Y-16275888D02*
X11431253Y-16294936D01*
X11431253Y-16294936D02*
X11421730Y-16304460D01*
X11421730Y-16304460D02*
X11402682Y-16313984D01*
X11402682Y-16313984D02*
X11374110Y-16313984D01*
X11555063Y-16313984D02*
X11536015Y-16304460D01*
X11536015Y-16304460D02*
X11526491Y-16285412D01*
X11526491Y-16285412D02*
X11526491Y-16113984D01*
X11707444Y-16304460D02*
X11688396Y-16313984D01*
X11688396Y-16313984D02*
X11650301Y-16313984D01*
X11650301Y-16313984D02*
X11631253Y-16304460D01*
X11631253Y-16304460D02*
X11621730Y-16285412D01*
X11621730Y-16285412D02*
X11621730Y-16209222D01*
X11621730Y-16209222D02*
X11631253Y-16190174D01*
X11631253Y-16190174D02*
X11650301Y-16180650D01*
X11650301Y-16180650D02*
X11688396Y-16180650D01*
X11688396Y-16180650D02*
X11707444Y-16190174D01*
X11707444Y-16190174D02*
X11716968Y-16209222D01*
X11716968Y-16209222D02*
X11716968Y-16228269D01*
X11716968Y-16228269D02*
X11621730Y-16247317D01*
X11793158Y-16304460D02*
X11812206Y-16313984D01*
X11812206Y-16313984D02*
X11850301Y-16313984D01*
X11850301Y-16313984D02*
X11869349Y-16304460D01*
X11869349Y-16304460D02*
X11878872Y-16285412D01*
X11878872Y-16285412D02*
X11878872Y-16275888D01*
X11878872Y-16275888D02*
X11869349Y-16256841D01*
X11869349Y-16256841D02*
X11850301Y-16247317D01*
X11850301Y-16247317D02*
X11821730Y-16247317D01*
X11821730Y-16247317D02*
X11802682Y-16237793D01*
X11802682Y-16237793D02*
X11793158Y-16218746D01*
X11793158Y-16218746D02*
X11793158Y-16209222D01*
X11793158Y-16209222D02*
X11802682Y-16190174D01*
X11802682Y-16190174D02*
X11821730Y-16180650D01*
X11821730Y-16180650D02*
X11850301Y-16180650D01*
X11850301Y-16180650D02*
X11869349Y-16190174D01*
X11945539Y-16390174D02*
X11955063Y-16380650D01*
X11955063Y-16380650D02*
X11974111Y-16352079D01*
X11974111Y-16352079D02*
X11983634Y-16333031D01*
X11983634Y-16333031D02*
X11993158Y-16304460D01*
X11993158Y-16304460D02*
X12002682Y-16256841D01*
X12002682Y-16256841D02*
X12002682Y-16218746D01*
X12002682Y-16218746D02*
X11993158Y-16171127D01*
X11993158Y-16171127D02*
X11983634Y-16142555D01*
X11983634Y-16142555D02*
X11974111Y-16123508D01*
X11974111Y-16123508D02*
X11955063Y-16094936D01*
X11955063Y-16094936D02*
X11945539Y-16085412D01*
M02*
