%TF.GenerationSoftware,KiCad,Pcbnew,7.0.7*%
%TF.CreationDate,2024-06-12T19:49:10-05:00*%
%TF.ProjectId,Nabu_MEGAMAPPER,4e616275-5f4d-4454-9741-4d4150504552,rev?*%
%TF.SameCoordinates,Original*%
%TF.FileFunction,Soldermask,Bot*%
%TF.FilePolarity,Negative*%
%FSLAX46Y46*%
G04 Gerber Fmt 4.6, Leading zero omitted, Abs format (unit mm)*
G04 Created by KiCad (PCBNEW 7.0.7) date 2024-06-12 19:49:10*
%MOMM*%
%LPD*%
G01*
G04 APERTURE LIST*
%ADD10C,1.600000*%
%ADD11R,1.600000X1.600000*%
%ADD12O,1.600000X1.600000*%
%ADD13C,1.422400*%
%ADD14R,1.422400X1.422400*%
%ADD15R,1.700000X1.700000*%
%ADD16O,1.700000X1.700000*%
G04 APERTURE END LIST*
D10*
%TO.C,C20*%
X191730000Y-123190000D03*
D11*
X189230000Y-123190000D03*
%TD*%
D12*
%TO.C,U19*%
X81915000Y-61595000D03*
X84455000Y-61595000D03*
X86995000Y-61595000D03*
X89535000Y-61595000D03*
X92075000Y-61595000D03*
X94615000Y-61595000D03*
X97155000Y-61595000D03*
X99695000Y-61595000D03*
X102235000Y-61595000D03*
X104775000Y-61595000D03*
X104775000Y-69215000D03*
X102235000Y-69215000D03*
X99695000Y-69215000D03*
X97155000Y-69215000D03*
X94615000Y-69215000D03*
X92075000Y-69215000D03*
X89535000Y-69215000D03*
X86995000Y-69215000D03*
X84455000Y-69215000D03*
D11*
X81915000Y-69215000D03*
%TD*%
%TO.C,U18*%
X94650000Y-107950000D03*
D12*
X94650000Y-110490000D03*
X94650000Y-113030000D03*
X94650000Y-115570000D03*
X94650000Y-118110000D03*
X94650000Y-120650000D03*
X94650000Y-123190000D03*
X94650000Y-125730000D03*
X94650000Y-128270000D03*
X94650000Y-130810000D03*
X94650000Y-133350000D03*
X94650000Y-135890000D03*
X94650000Y-138430000D03*
X94650000Y-140970000D03*
X94650000Y-143510000D03*
X94650000Y-146050000D03*
X109890000Y-146050000D03*
X109890000Y-143510000D03*
X109890000Y-140970000D03*
X109890000Y-138430000D03*
X109890000Y-135890000D03*
X109890000Y-133350000D03*
X109890000Y-130810000D03*
X109890000Y-128270000D03*
X109890000Y-125730000D03*
X109890000Y-123190000D03*
X109890000Y-120650000D03*
X109890000Y-118110000D03*
X109890000Y-115570000D03*
X109890000Y-113030000D03*
X109890000Y-110490000D03*
X109890000Y-107950000D03*
%TD*%
%TO.C,U17*%
X132155000Y-107950000D03*
X132155000Y-110490000D03*
X132155000Y-113030000D03*
X132155000Y-115570000D03*
X132155000Y-118110000D03*
X132155000Y-120650000D03*
X132155000Y-123190000D03*
X132155000Y-125730000D03*
X132155000Y-128270000D03*
X132155000Y-130810000D03*
X132155000Y-133350000D03*
X132155000Y-135890000D03*
X132155000Y-138430000D03*
X132155000Y-140970000D03*
X132155000Y-143510000D03*
X132155000Y-146050000D03*
X116915000Y-146050000D03*
X116915000Y-143510000D03*
X116915000Y-140970000D03*
X116915000Y-138430000D03*
X116915000Y-135890000D03*
X116915000Y-133350000D03*
X116915000Y-130810000D03*
X116915000Y-128270000D03*
X116915000Y-125730000D03*
X116915000Y-123190000D03*
X116915000Y-120650000D03*
X116915000Y-118110000D03*
X116915000Y-115570000D03*
X116915000Y-113030000D03*
X116915000Y-110490000D03*
D11*
X116915000Y-107950000D03*
%TD*%
D12*
%TO.C,U16*%
X154340000Y-107950000D03*
X154340000Y-110490000D03*
X154340000Y-113030000D03*
X154340000Y-115570000D03*
X154340000Y-118110000D03*
X154340000Y-120650000D03*
X154340000Y-123190000D03*
X154340000Y-125730000D03*
X154340000Y-128270000D03*
X154340000Y-130810000D03*
X154340000Y-133350000D03*
X154340000Y-135890000D03*
X154340000Y-138430000D03*
X154340000Y-140970000D03*
X154340000Y-143510000D03*
X154340000Y-146050000D03*
X139100000Y-146050000D03*
X139100000Y-143510000D03*
X139100000Y-140970000D03*
X139100000Y-138430000D03*
X139100000Y-135890000D03*
X139100000Y-133350000D03*
X139100000Y-130810000D03*
X139100000Y-128270000D03*
X139100000Y-125730000D03*
X139100000Y-123190000D03*
X139100000Y-120650000D03*
X139100000Y-118110000D03*
X139100000Y-115570000D03*
X139100000Y-113030000D03*
X139100000Y-110490000D03*
D11*
X139100000Y-107950000D03*
%TD*%
D12*
%TO.C,U15*%
X176525000Y-107950000D03*
X176525000Y-110490000D03*
X176525000Y-113030000D03*
X176525000Y-115570000D03*
X176525000Y-118110000D03*
X176525000Y-120650000D03*
X176525000Y-123190000D03*
X176525000Y-125730000D03*
X176525000Y-128270000D03*
X176525000Y-130810000D03*
X176525000Y-133350000D03*
X176525000Y-135890000D03*
X176525000Y-138430000D03*
X176525000Y-140970000D03*
X176525000Y-143510000D03*
X176525000Y-146050000D03*
X161285000Y-146050000D03*
X161285000Y-143510000D03*
X161285000Y-140970000D03*
X161285000Y-138430000D03*
X161285000Y-135890000D03*
X161285000Y-133350000D03*
X161285000Y-130810000D03*
X161285000Y-128270000D03*
X161285000Y-125730000D03*
X161285000Y-123190000D03*
X161285000Y-120650000D03*
X161285000Y-118110000D03*
X161285000Y-115570000D03*
X161285000Y-113030000D03*
X161285000Y-110490000D03*
D11*
X161285000Y-107950000D03*
%TD*%
%TO.C,U14*%
X97155000Y-100965000D03*
D12*
X99695000Y-100965000D03*
X102235000Y-100965000D03*
X104775000Y-100965000D03*
X107315000Y-100965000D03*
X109855000Y-100965000D03*
X112395000Y-100965000D03*
X114935000Y-100965000D03*
X114935000Y-93345000D03*
X112395000Y-93345000D03*
X109855000Y-93345000D03*
X107315000Y-93345000D03*
X104775000Y-93345000D03*
X102235000Y-93345000D03*
X99695000Y-93345000D03*
X97155000Y-93345000D03*
%TD*%
D13*
%TO.C,U13*%
X215900000Y-92710000D03*
X218440000Y-95250000D03*
X218440000Y-92710000D03*
X220980000Y-95250000D03*
X220980000Y-92710000D03*
X223520000Y-95250000D03*
X220980000Y-97790000D03*
X223520000Y-97790000D03*
X220980000Y-100330000D03*
X223520000Y-100330000D03*
X220980000Y-102870000D03*
X223520000Y-102870000D03*
X220980000Y-105410000D03*
X223520000Y-105410000D03*
X220980000Y-107950000D03*
X223520000Y-107950000D03*
X220980000Y-110490000D03*
X218440000Y-107950000D03*
X218440000Y-110490000D03*
X215900000Y-107950000D03*
X215900000Y-110490000D03*
X213360000Y-107950000D03*
X213360000Y-110490000D03*
X210820000Y-107950000D03*
X210820000Y-110490000D03*
X208280000Y-107950000D03*
X208280000Y-110490000D03*
X205740000Y-107950000D03*
X208280000Y-105410000D03*
X205740000Y-105410000D03*
X208280000Y-102870000D03*
X205740000Y-102870000D03*
X208280000Y-100330000D03*
X205740000Y-100330000D03*
X208280000Y-97790000D03*
X205740000Y-97790000D03*
X208280000Y-95250000D03*
X205740000Y-95250000D03*
X208280000Y-92710000D03*
X210820000Y-95250000D03*
X210820000Y-92710000D03*
X213360000Y-95250000D03*
X213360000Y-92710000D03*
D14*
X215900000Y-95250000D03*
%TD*%
D11*
%TO.C,U12*%
X218410000Y-128910000D03*
D12*
X218410000Y-131450000D03*
X218410000Y-133990000D03*
X218410000Y-136530000D03*
X218410000Y-139070000D03*
X218410000Y-141610000D03*
X218410000Y-144150000D03*
X218410000Y-146690000D03*
X226030000Y-146690000D03*
X226030000Y-144150000D03*
X226030000Y-141610000D03*
X226030000Y-139070000D03*
X226030000Y-136530000D03*
X226030000Y-133990000D03*
X226030000Y-131450000D03*
X226030000Y-128910000D03*
%TD*%
D11*
%TO.C,U11*%
X149225000Y-69215000D03*
D12*
X151765000Y-69215000D03*
X154305000Y-69215000D03*
X156845000Y-69215000D03*
X159385000Y-69215000D03*
X161925000Y-69215000D03*
X164465000Y-69215000D03*
X167005000Y-69215000D03*
X169545000Y-69215000D03*
X172085000Y-69215000D03*
X172085000Y-61595000D03*
X169545000Y-61595000D03*
X167005000Y-61595000D03*
X164465000Y-61595000D03*
X161925000Y-61595000D03*
X159385000Y-61595000D03*
X156845000Y-61595000D03*
X154305000Y-61595000D03*
X151765000Y-61595000D03*
X149225000Y-61595000D03*
%TD*%
D11*
%TO.C,U10*%
X115570000Y-69215000D03*
D12*
X118110000Y-69215000D03*
X120650000Y-69215000D03*
X123190000Y-69215000D03*
X125730000Y-69215000D03*
X128270000Y-69215000D03*
X130810000Y-69215000D03*
X133350000Y-69215000D03*
X135890000Y-69215000D03*
X138430000Y-69215000D03*
X138430000Y-61595000D03*
X135890000Y-61595000D03*
X133350000Y-61595000D03*
X130810000Y-61595000D03*
X128270000Y-61595000D03*
X125730000Y-61595000D03*
X123190000Y-61595000D03*
X120650000Y-61595000D03*
X118110000Y-61595000D03*
X115570000Y-61595000D03*
%TD*%
D11*
%TO.C,U9*%
X204430000Y-123825000D03*
D12*
X204430000Y-126365000D03*
X204430000Y-128905000D03*
X204430000Y-131445000D03*
X204430000Y-133985000D03*
X204430000Y-136525000D03*
X204430000Y-139065000D03*
X204430000Y-141605000D03*
X204430000Y-144145000D03*
X204430000Y-146685000D03*
X212050000Y-146685000D03*
X212050000Y-144145000D03*
X212050000Y-141605000D03*
X212050000Y-139065000D03*
X212050000Y-136525000D03*
X212050000Y-133985000D03*
X212050000Y-131445000D03*
X212050000Y-128905000D03*
X212050000Y-126365000D03*
X212050000Y-123825000D03*
%TD*%
D11*
%TO.C,U8*%
X154305000Y-85090000D03*
D12*
X156845000Y-85090000D03*
X159385000Y-85090000D03*
X161925000Y-85090000D03*
X164465000Y-85090000D03*
X167005000Y-85090000D03*
X169545000Y-85090000D03*
X172085000Y-85090000D03*
X172085000Y-77470000D03*
X169545000Y-77470000D03*
X167005000Y-77470000D03*
X164465000Y-77470000D03*
X161925000Y-77470000D03*
X159385000Y-77470000D03*
X156845000Y-77470000D03*
X154305000Y-77470000D03*
%TD*%
%TO.C,U7*%
X125730000Y-77470000D03*
X128270000Y-77470000D03*
X130810000Y-77470000D03*
X133350000Y-77470000D03*
X135890000Y-77470000D03*
X138430000Y-77470000D03*
X140970000Y-77470000D03*
X143510000Y-77470000D03*
X143510000Y-85090000D03*
X140970000Y-85090000D03*
X138430000Y-85090000D03*
X135890000Y-85090000D03*
X133350000Y-85090000D03*
X130810000Y-85090000D03*
X128270000Y-85090000D03*
D11*
X125730000Y-85090000D03*
%TD*%
%TO.C,U6*%
X97155000Y-85090000D03*
D12*
X99695000Y-85090000D03*
X102235000Y-85090000D03*
X104775000Y-85090000D03*
X107315000Y-85090000D03*
X109855000Y-85090000D03*
X112395000Y-85090000D03*
X114935000Y-85090000D03*
X114935000Y-77470000D03*
X112395000Y-77470000D03*
X109855000Y-77470000D03*
X107315000Y-77470000D03*
X104775000Y-77470000D03*
X102235000Y-77470000D03*
X99695000Y-77470000D03*
X97155000Y-77470000D03*
%TD*%
D11*
%TO.C,U5*%
X187955000Y-76875000D03*
D12*
X190495000Y-76875000D03*
X193035000Y-76875000D03*
X195575000Y-76875000D03*
X198115000Y-76875000D03*
X200655000Y-76875000D03*
X203195000Y-76875000D03*
X205735000Y-76875000D03*
X208275000Y-76875000D03*
X210815000Y-76875000D03*
X213355000Y-76875000D03*
X215895000Y-76875000D03*
X215895000Y-61635000D03*
X213355000Y-61635000D03*
X210815000Y-61635000D03*
X208275000Y-61635000D03*
X205735000Y-61635000D03*
X203195000Y-61635000D03*
X200655000Y-61635000D03*
X198115000Y-61635000D03*
X195575000Y-61635000D03*
X193035000Y-61635000D03*
X190495000Y-61635000D03*
X187955000Y-61635000D03*
%TD*%
D11*
%TO.C,U4*%
X125730000Y-100955000D03*
D12*
X128270000Y-100955000D03*
X130810000Y-100955000D03*
X133350000Y-100955000D03*
X135890000Y-100955000D03*
X138430000Y-100955000D03*
X140970000Y-100955000D03*
X143510000Y-100955000D03*
X143510000Y-93335000D03*
X140970000Y-93335000D03*
X138430000Y-93335000D03*
X135890000Y-93335000D03*
X133350000Y-93335000D03*
X130810000Y-93335000D03*
X128270000Y-93335000D03*
X125730000Y-93335000D03*
%TD*%
D11*
%TO.C,U3*%
X154305000Y-100955000D03*
D12*
X156845000Y-100955000D03*
X159385000Y-100955000D03*
X161925000Y-100955000D03*
X164465000Y-100955000D03*
X167005000Y-100955000D03*
X169545000Y-100955000D03*
X172085000Y-100955000D03*
X172085000Y-93335000D03*
X169545000Y-93335000D03*
X167005000Y-93335000D03*
X164465000Y-93335000D03*
X161925000Y-93335000D03*
X159385000Y-93335000D03*
X156845000Y-93335000D03*
X154305000Y-93335000D03*
%TD*%
D11*
%TO.C,U2*%
X182880000Y-90805000D03*
D12*
X185420000Y-90805000D03*
X187960000Y-90805000D03*
X190500000Y-90805000D03*
X193040000Y-90805000D03*
X195580000Y-90805000D03*
X198120000Y-90805000D03*
X198120000Y-83185000D03*
X195580000Y-83185000D03*
X193040000Y-83185000D03*
X190500000Y-83185000D03*
X187960000Y-83185000D03*
X185420000Y-83185000D03*
X182880000Y-83185000D03*
%TD*%
%TO.C,U1*%
X87670000Y-97790000D03*
X87670000Y-100330000D03*
X87670000Y-102870000D03*
X87670000Y-105410000D03*
X87670000Y-107950000D03*
X87670000Y-110490000D03*
X87670000Y-113030000D03*
X87670000Y-115570000D03*
X87670000Y-118110000D03*
X87670000Y-120650000D03*
X87670000Y-123190000D03*
X87670000Y-125730000D03*
X87670000Y-128270000D03*
X87670000Y-130810000D03*
X87670000Y-133350000D03*
X87670000Y-135890000D03*
X87670000Y-138430000D03*
X87670000Y-140970000D03*
X87670000Y-143510000D03*
X87670000Y-146050000D03*
X72430000Y-146050000D03*
X72430000Y-143510000D03*
X72430000Y-140970000D03*
X72430000Y-138430000D03*
X72430000Y-135890000D03*
X72430000Y-133350000D03*
X72430000Y-130810000D03*
X72430000Y-128270000D03*
X72430000Y-125730000D03*
X72430000Y-123190000D03*
X72430000Y-120650000D03*
X72430000Y-118110000D03*
X72430000Y-115570000D03*
X72430000Y-113030000D03*
X72430000Y-110490000D03*
X72430000Y-107950000D03*
X72430000Y-105410000D03*
X72430000Y-102870000D03*
X72430000Y-100330000D03*
D11*
X72430000Y-97790000D03*
%TD*%
D15*
%TO.C,J3*%
X226060000Y-74295000D03*
D16*
X226060000Y-71755000D03*
X226060000Y-69215000D03*
X226060000Y-66675000D03*
X226060000Y-64135000D03*
X226060000Y-61595000D03*
%TD*%
D15*
%TO.C,J2*%
X198120000Y-146050000D03*
D16*
X198120000Y-143510000D03*
X198120000Y-140970000D03*
X198120000Y-138430000D03*
X198120000Y-135890000D03*
X198120000Y-133350000D03*
X198120000Y-130810000D03*
X198120000Y-128270000D03*
X198120000Y-125730000D03*
X198120000Y-123190000D03*
X198120000Y-120650000D03*
X198120000Y-118110000D03*
X198120000Y-115570000D03*
X198120000Y-113030000D03*
X198120000Y-110490000D03*
X198120000Y-107950000D03*
X198120000Y-105410000D03*
X198120000Y-102870000D03*
X198120000Y-100330000D03*
X198120000Y-97790000D03*
%TD*%
D15*
%TO.C,J1*%
X182880000Y-97790000D03*
D16*
X182880000Y-100330000D03*
X182880000Y-102870000D03*
X182880000Y-105410000D03*
X182880000Y-107950000D03*
X182880000Y-110490000D03*
X182880000Y-113030000D03*
X182880000Y-115570000D03*
X182880000Y-118110000D03*
X182880000Y-120650000D03*
X182880000Y-123190000D03*
X182880000Y-125730000D03*
X182880000Y-128270000D03*
X182880000Y-130810000D03*
X182880000Y-133350000D03*
X182880000Y-135890000D03*
X182880000Y-138430000D03*
X182880000Y-140970000D03*
X182880000Y-143510000D03*
X182880000Y-146050000D03*
%TD*%
D10*
%TO.C,C19*%
X78735000Y-62915000D03*
X78735000Y-67915000D03*
%TD*%
%TO.C,C18*%
X99735000Y-104775000D03*
X104735000Y-104775000D03*
%TD*%
%TO.C,C17*%
X126960000Y-104775000D03*
X121960000Y-104775000D03*
%TD*%
%TO.C,C16*%
X149185000Y-104775000D03*
X144185000Y-104775000D03*
%TD*%
%TO.C,C15*%
X166410000Y-104775000D03*
X171410000Y-104775000D03*
%TD*%
%TO.C,C14*%
X93980000Y-99655000D03*
X93980000Y-94655000D03*
%TD*%
%TO.C,C13*%
X217130000Y-87670000D03*
X212130000Y-87670000D03*
%TD*%
%TO.C,C12*%
X219710000Y-125735000D03*
X224710000Y-125735000D03*
%TD*%
%TO.C,C11*%
X146050000Y-62905000D03*
X146050000Y-67905000D03*
%TD*%
%TO.C,C10*%
X112395000Y-67905000D03*
X112395000Y-62905000D03*
%TD*%
%TO.C,C9*%
X210740000Y-120650000D03*
X205740000Y-120650000D03*
%TD*%
%TO.C,C8*%
X151130000Y-83820000D03*
X151130000Y-78820000D03*
%TD*%
%TO.C,C7*%
X122555000Y-78790000D03*
X122555000Y-83790000D03*
%TD*%
%TO.C,C6*%
X93980000Y-83725000D03*
X93980000Y-78725000D03*
%TD*%
%TO.C,C5*%
X184785000Y-67350000D03*
X184785000Y-72350000D03*
%TD*%
%TO.C,C4*%
X122555000Y-99655000D03*
X122555000Y-94655000D03*
%TD*%
%TO.C,C3*%
X151115000Y-99655000D03*
X151115000Y-94655000D03*
%TD*%
%TO.C,C2*%
X179705000Y-89495000D03*
X179705000Y-84495000D03*
%TD*%
%TO.C,C1*%
X82510000Y-94615000D03*
X77510000Y-94615000D03*
%TD*%
M02*
